<?xml version="1.0" standalone="no"?>
<!DOCTYPE svg PUBLIC "-//W3C//DTD SVG 1.1//EN" "http://www.w3.org/Graphics/SVG/1.1/DTD/svg11.dtd" >
<svg xmlns="http://www.w3.org/2000/svg">
<metadata>
<json>
<![CDATA[
{
	"fontFamily": "icomoon",
	"majorVersion": 1,
	"minorVersion": 0,
	"version": "Version 1.0",
	"fontId": "icomoon",
	"psName": "icomoon",
	"subFamily": "Regular",
	"fullName": "icomoon",
	"description": "Font generated by IcoMoon."
}
]]>
</json>
</metadata>
<defs>
<font id="icomoon" horiz-adv-x="1024">
<font-face units-per-em="1024" ascent="960" descent="-64" />
<missing-glyph horiz-adv-x="1024" />
<glyph unicode="&#x20;" horiz-adv-x="512" d="" />
<glyph unicode="&#xe900;" glyph-name="about-us" data-tags="about-us" d="M129.024 478.72c-61.44 0-110.592-51.2-110.592-110.592v-247.808h221.184v247.808c0 61.44-51.2 110.592-110.592 110.592zM215.040 144.896h-172.032v223.232c0 47.104 38.912 86.016 86.016 86.016s86.016-38.912 86.016-86.016v-223.232zM626.688 474.624c-120.832 0-96.256-163.84-120.832-163.84-22.528 0-4.096 163.84-120.832 163.84-57.344-6.144-96.256-57.344-96.256-114.688v-321.536h442.368v323.584c0 57.344-47.104 112.64-104.448 112.64zM706.56 62.976h-393.216v296.96c0 47.104 30.72 83.968 73.728 90.112 55.296 0 69.632-49.152 81.92-108.544 6.144-28.672 12.288-55.296 38.912-55.296 28.672 0 32.768 28.672 38.912 57.344 10.24 57.344 24.576 106.496 81.92 106.496 40.96 0 79.872-40.96 79.872-88.064v-299.008zM890.88 478.72c-61.44 0-110.592-51.2-110.592-110.592v-247.808h221.184v247.808c0 61.44-51.2 110.592-110.592 110.592zM976.896 144.896h-172.032v223.232c0 47.104 38.912 86.016 86.016 86.016s86.016-38.912 86.016-86.016v-223.232zM208.896 751.104c-61.44 0-110.592-49.152-110.592-110.592s49.152-110.592 110.592-110.592 110.592 49.152 110.592 110.592c0 59.392-49.152 110.592-110.592 110.592zM208.896 554.496c-49.152 0-86.016 36.864-86.016 86.016s36.864 86.016 86.016 86.016c47.104 0 86.016-38.912 86.016-86.016 0-49.152-36.864-86.016-86.016-86.016zM921.6 638.464c0 61.44-49.152 110.592-110.592 110.592s-110.592-49.152-110.592-110.592 49.152-110.592 110.592-110.592c61.44 2.048 110.592 51.2 110.592 110.592zM724.992 638.464c0 49.152 36.864 86.016 86.016 86.016s86.016-36.864 86.016-86.016c0-45.056-38.912-83.968-86.016-86.016-49.152 0-86.016 38.912-86.016 86.016zM509.952 536.064c81.92 0 149.504 67.584 149.504 149.504s-67.584 149.504-149.504 149.504-149.504-67.584-149.504-149.504 67.584-149.504 149.504-149.504zM509.952 810.496c69.632 0 124.928-55.296 124.928-124.928s-55.296-124.928-124.928-124.928c-69.632 0-124.928 55.296-124.928 124.928s55.296 124.928 124.928 124.928z" />
<glyph unicode="&#xe901;" glyph-name="about-us-f" data-tags="about-us-f" d="M235.52 122.368h-217.088v247.808c0 59.392 49.152 110.592 110.592 110.592v0c59.392 0 110.592-49.152 110.592-110.592v-247.808h-4.096zM626.688 476.672c-120.832 0-96.256-163.84-120.832-163.84-22.528 0-4.096 163.84-120.832 163.84-57.344-6.144-96.256-57.344-96.256-114.688v-323.584h442.368v325.632c0 57.344-47.104 110.592-104.448 112.64zM1001.472 122.368h-221.184v247.808c0 59.392 49.152 110.592 110.592 110.592v0c59.392 0 110.592-49.152 110.592-110.592v-247.808zM319.488 640.512c0-61.078-49.514-110.592-110.592-110.592s-110.592 49.514-110.592 110.592c0 61.078 49.514 110.592 110.592 110.592s110.592-49.514 110.592-110.592zM921.6 640.512c0-61.078-49.514-110.592-110.592-110.592s-110.592 49.514-110.592 110.592c0 61.078 49.514 110.592 110.592 110.592s110.592-49.514 110.592-110.592zM659.456 685.568c0-82.569-66.935-149.504-149.504-149.504s-149.504 66.935-149.504 149.504c0 82.569 66.935 149.504 149.504 149.504s149.504-66.935 149.504-149.504z" />
<glyph unicode="&#xe902;" glyph-name="album" data-tags="album" d="M733.184 572.928h-124.928l-10.24 45.056c-6.144 22.528-26.624 38.912-49.152 38.912h-167.936c-24.576 0-45.056-16.384-49.152-38.912l-10.24-45.056h-126.976c-22.528 0-40.96-18.432-40.96-40.96v-331.776c0-22.528 18.432-40.96 40.96-40.96h538.624c22.528 0 40.96 18.432 40.96 40.96v331.776c0 22.528-20.48 40.96-40.96 40.96zM749.568 200.192c0-10.24-6.144-16.384-16.384-16.384h-538.624c-10.24 0-16.384 6.144-16.384 16.384v331.776c0 10.24 6.144 16.384 16.384 16.384h145.408l14.336 63.488c2.048 12.288 12.288 20.48 24.576 20.48h167.936c12.288 0 22.528-8.192 24.576-20.48l14.336-61.44h143.36c10.24 0 18.432-8.192 18.432-18.432l2.048-331.776zM462.848 515.584c-79.872 0-145.408-65.536-145.408-145.408s65.536-145.408 145.408-145.408 145.408 65.536 145.408 145.408c0 79.872-67.584 145.408-145.408 145.408zM462.848 249.344c-65.536 0-120.832 53.248-120.832 120.832s53.248 120.832 120.832 120.832c65.536 0 120.832-55.296 120.832-120.832 0-67.584-55.296-120.832-120.832-120.832zM462.848 452.096c-45.056 0-81.92-36.864-81.92-81.92s36.864-81.92 81.92-81.92c45.056 0 81.92 36.864 81.92 81.92s-36.864 81.92-81.92 81.92zM462.848 310.784c-30.72 0-57.344 26.624-57.344 57.344s24.576 59.392 57.344 59.392 57.344-26.624 57.344-57.344-26.624-59.392-57.344-59.392zM301.056 773.632v26.624c0 16.384 10.24 26.624 26.624 26.624h610.304c16.384 0 26.624-10.24 26.624-26.624v-503.808c0-16.384-10.24-26.624-26.624-26.624h-24.576v-20.48h24.576c24.576 0 47.104 22.528 47.104 49.152v501.76c0 26.624-20.48 49.152-47.104 49.152h-612.352c-24.576 0-47.104-22.528-47.104-49.152v-26.624h22.528zM831.488 749.056h-735.232c-30.72 0-55.296-24.576-55.296-55.296v-573.44c0-30.72 24.576-55.296 55.296-55.296h735.232c30.72 0 55.296 24.576 55.296 55.296v573.44c0 30.72-24.576 55.296-55.296 55.296zM862.208 120.32c0-16.384-14.336-30.72-30.72-30.72h-735.232c-16.384 0-30.72 14.336-30.72 30.72v573.44c0 16.384 14.336 30.72 30.72 30.72h735.232c16.384 0 30.72-14.336 30.72-30.72v-573.44z" />
<glyph unicode="&#xe903;" glyph-name="archive" data-tags="archive" d="M894.976 628.224h-765.952c-38.912 0-71.68-32.768-71.68-71.68v-471.040c0-38.912 32.768-71.68 71.68-71.68h765.952c38.912 0 71.68 32.768 71.68 71.68v471.040c2.048 38.912-30.72 71.68-71.68 71.68zM942.080 85.504c0-24.576-22.528-47.104-47.104-47.104h-765.952c-24.576 0-47.104 22.528-47.104 47.104v471.040c0 24.576 22.528 47.104 47.104 47.104h765.952c14.336 0 26.624-6.144 34.816-14.336s12.288-20.48 12.288-30.72v-473.088zM620.544 542.208h-217.088c-32.768 0-61.44-28.672-61.44-61.44v-36.864c0-32.768 28.672-61.44 61.44-61.44h219.136c40.96 0 59.392 36.864 59.392 61.44v36.864c0 34.816-26.624 61.44-61.44 61.44zM657.408 443.904c0 0-2.048-36.864-34.816-36.864h-219.136c-18.432 0-36.864 18.432-36.864 36.864v36.864c0 18.432 18.432 36.864 36.864 36.864h217.088c22.528 0 36.864-18.432 36.864-36.864v-36.864zM931.84 882.176h-839.68c-40.96 0-71.68-32.768-71.68-71.68v-71.68c0-38.912 32.768-71.68 71.68-71.68h839.68c38.912 0 71.68 32.768 71.68 71.68v71.68c2.048 38.912-30.72 71.68-71.68 71.68zM978.944 738.816c0-24.576-22.528-47.104-47.104-47.104h-839.68c-24.576 0-47.104 22.528-47.104 47.104v71.68c0 26.624 20.48 47.104 47.104 47.104h839.68c14.336 0 26.624-6.144 34.816-14.336s12.288-20.48 12.288-30.72v-73.728z" />
<glyph unicode="&#xe904;" glyph-name="archive-f" data-tags="archive-f" d="M894.976 624.128h-765.952c-38.912 0-71.68-32.768-71.68-71.68v-471.040c0-38.912 32.768-71.68 71.68-71.68h765.952c38.912 0 71.68 32.768 71.68 71.68v471.040c2.048 38.912-30.72 71.68-71.68 71.68zM622.592 402.944h-219.136c-18.432 0-36.864 18.432-36.864 36.864v36.864c0 18.432 18.432 36.864 36.864 36.864h217.088c22.528 0 36.864-18.432 36.864-36.864v-36.864c0 0-2.048-36.864-34.816-36.864zM931.84 878.080h-839.68c-40.96 0-71.68-32.768-71.68-71.68v-71.68c0-38.912 32.768-71.68 71.68-71.68h839.68c38.912 0 71.68 32.768 71.68 71.68v71.68c2.048 38.912-30.72 71.68-71.68 71.68z" />
<glyph unicode="&#xe905;" glyph-name="archive-plus" data-tags="archive-plus" d="M563.2 478.72h-196.608c-30.72 0-57.344-26.624-57.344-57.344v-32.768c0-30.72 26.624-57.344 57.344-57.344h196.608c36.864 0 57.344 28.672 57.344 57.344v32.768c0 28.672-20.48 57.344-57.344 57.344zM595.968 388.608c0-16.384-12.288-32.768-32.768-32.768h-196.608c-16.384 0-32.768 16.384-32.768 32.768v32.768c0 16.384 16.384 32.768 32.768 32.768h196.608c20.48 0 32.768-16.384 32.768-32.768v-32.768zM806.912 554.496h-688.128c-36.864 0-65.536-28.672-65.536-65.536v-423.936c0-36.864 28.672-65.536 65.536-65.536h688.128c36.864 0 65.536 28.672 65.536 65.536v425.984c0 34.816-28.672 63.488-65.536 63.488zM847.872 65.024c0-22.528-18.432-40.96-40.96-40.96h-688.128c-22.528 0-40.96 18.432-40.96 40.96v423.936c0 22.528 18.432 40.96 40.96 40.96h688.128c22.528 0 40.96-16.384 40.96-38.912v-425.984zM792.576 718.336v67.584h-706.56c-34.816 0-65.536-30.72-65.536-67.584v-65.536c0-34.816 30.72-65.536 65.536-65.536h753.664c36.864 0 65.536 28.672 65.536 65.536v16.384h-65.536c-28.672 0-47.104 20.48-47.104 49.152zM839.68 611.84h-753.664c-20.48 0-40.96 20.48-40.96 40.96v65.536c0 22.528 18.432 43.008 40.96 43.008h681.984v-43.008c0-43.008 30.72-73.728 71.68-73.728h40.96c-4.096-18.432-20.48-32.768-40.96-32.768zM970.752 884.224h-131.072c-20.48 0-32.768-12.288-32.768-32.768v-131.072c0-20.48 12.288-32.768 32.768-32.768h131.072c20.48 0 32.768 12.288 32.768 32.768v131.072c0 18.432-12.288 32.768-32.768 32.768zM983.040 783.872c0-2.048 0-12.288-14.336-12.288h-53.248v-53.248c0-6.144-6.144-10.24-10.24-10.24h-4.096c-6.144 0-10.24 6.144-10.24 10.24v53.248h-53.248c-6.144 0-10.24 6.144-10.24 10.24v4.096c0 6.144 6.144 10.24 10.24 10.24h53.248v53.248c0 10.24 10.24 10.24 14.336 10.24h4.096c6.144 0 10.24-6.144 10.24-10.24v-53.248h53.248c6.144 0 10.24-6.144 10.24-10.24v-2.048z" />
<glyph unicode="&#xe906;" glyph-name="archive-plus-f" data-tags="archive-plus-f" d="M806.912 562.688h-688.128c-36.864 0-65.536-28.672-65.536-65.536v-423.936c0-36.864 28.672-65.536 65.536-65.536h688.128c36.864 0 65.536 28.672 65.536 65.536v425.984c0 34.816-28.672 63.488-65.536 63.488zM595.968 396.8c0-16.384-12.288-32.768-32.768-32.768h-196.608c-16.384 0-32.768 16.384-32.768 32.768v32.768c0 16.384 16.384 32.768 32.768 32.768h196.608c20.48 0 32.768-16.384 32.768-32.768v-32.768zM792.576 726.528v67.584h-706.56c-34.816 0-65.536-30.72-65.536-67.584v-65.536c0-34.816 30.72-65.536 65.536-65.536h753.664c36.864 0 65.536 28.672 65.536 65.536v16.384h-65.536c-28.672 0-47.104 20.48-47.104 49.152zM970.752 892.416h-131.072c-20.48 0-32.768-12.288-32.768-32.768v-131.072c0-20.48 12.288-32.768 32.768-32.768h131.072c20.48 0 32.768 12.288 32.768 32.768v131.072c0 18.432-12.288 32.768-32.768 32.768zM968.704 779.776h-53.248v-53.248c0-6.144-6.144-10.24-10.24-10.24h-4.096c-6.144 0-10.24 6.144-10.24 10.24v53.248h-53.248c-6.144 0-10.24 6.144-10.24 10.24v4.096c0 6.144 6.144 10.24 10.24 10.24h53.248v53.248c0 10.24 10.24 10.24 14.336 10.24h4.096c6.144 0 10.24-6.144 10.24-10.24v-53.248h53.248c6.144 0 10.24-6.144 10.24-10.24v-2.048c0-2.048 0-12.288-14.336-12.288z" />
<glyph unicode="&#xe907;" glyph-name="bookmark" data-tags="bookmark" d="M927.744 914.944c-20.48 16.384-40.96 24.576-61.44 24.576h-710.656c-47.104 0-83.968-36.864-83.968-83.968v-815.104c0-32.768 16.384-63.488 47.104-75.776 14.336-4.096 24.576-8.192 36.864-8.192 16.384 0 32.768 4.096 47.104 16.384l268.288 204.8c24.576 16.384 55.296 16.384 75.776 0l268.288-204.8c14.336-12.288 34.816-16.384 51.2-16.384 12.288 0 24.576 0 38.912 4.096 28.672 12.288 45.056 43.008 45.056 75.776v819.2c2.048 22.528-4.096 43.008-22.528 59.392zM927.744 36.352c0-24.576-10.24-45.056-28.672-53.248-10.24-2.048-20.48-2.048-30.72-2.048-14.336 0-26.624 4.096-34.816 10.24l-270.336 204.8c-14.336 10.24-32.768 16.384-51.2 16.384s-36.864-6.144-53.248-16.384l-270.336-204.8c-10.24-8.192-18.432-12.288-32.768-12.288-8.192 0-18.432 4.096-28.672 6.144-22.528 8.192-30.72 32.768-30.72 53.248v817.152c0 32.768 26.624 59.392 59.392 59.392h710.656c14.336 0 28.672-6.144 43.008-18.432 12.288-10.24 16.384-22.528 16.384-40.96v-819.2z" />
<glyph unicode="&#xe908;" glyph-name="bookmark-f" data-tags="bookmark-f" d="M876.544-43.52c-16.384 0-36.864 4.096-51.2 16.384l-268.288 204.8c-20.48 16.384-51.2 16.384-75.776 0l-268.288-204.8c-14.336-12.288-30.72-16.384-47.104-16.384-12.288 0-24.576 4.096-36.864 8.192-30.72 12.288-47.104 43.008-47.104 75.776v815.104c0 47.104 36.864 83.968 83.968 83.968h710.656c20.48 0 40.96-8.192 59.392-24.576s24.576-36.864 24.576-59.392v-819.2c0-32.768-16.384-63.488-45.056-75.776-14.336-4.096-26.624-4.096-38.912-4.096z" />
<glyph unicode="&#xe909;" glyph-name="camera-view" data-tags="camera-view" d="M933.888 710.144h-196.608l-16.384 69.632c-10.24 36.864-43.008 61.44-77.824 61.44h-266.24c-38.912 0-71.68-26.624-77.824-61.44l-16.384-69.632h-196.608c-36.864 0-65.536-28.672-65.536-65.536v-524.288c0-36.864 28.672-65.536 65.536-65.536h851.968c36.864 0 65.536 28.672 65.536 65.536v524.288c-4.096 36.864-32.768 65.536-69.632 65.536zM978.944 120.32c0-22.528-18.432-40.96-40.96-40.96h-851.968c-22.528 0-40.96 18.432-40.96 40.96v524.288c0 22.528 18.432 40.96 40.96 40.96h215.040l20.48 88.064c6.144 24.576 28.672 43.008 55.296 43.008h266.24c24.576 0 47.104-18.432 53.248-43.008l20.48-88.064h215.040c22.528 0 40.96-18.432 45.056-43.008v-522.24zM251.904 349.696c-12.288 4.096-38.912-14.336-49.152-20.48-14.336 32.768-40.96 73.728-40.96 114.688 0 28.672 20.48 49.152 40.96 61.44 8.192 4.096 34.816 12.288 28.672 24.576-12.288 24.576-81.92-4.096-96.256-14.336-28.672-14.336-53.248-40.96-55.296-73.728-10.24-55.296 14.336-108.544 40.96-153.6-12.288-4.096-34.816-8.192-40.96-24.576-4.096-14.336 14.336-20.48 28.672-24.576 28.672-8.192 102.4-32.768 102.4-32.768s40.96 86.016 45.056 102.4c0 12.288 14.336 32.768-4.096 40.96zM231.424 312.832c-4.096-10.24-20.48-47.104-34.816-77.824-24.576 8.192-61.44 20.48-81.92 26.624 0 0 2.048 0 2.048 0 4.096 2.048 8.192 2.048 12.288 4.096l26.624 10.24-14.336 24.576c-24.576 40.96-47.104 88.064-36.864 135.168v4.096c2.048 28.672 30.72 47.104 43.008 53.248l2.048 2.048c2.048 2.048 8.192 4.096 12.288 6.144-14.336-16.384-22.528-36.864-22.528-57.344 0-38.912 18.432-73.728 32.768-104.448 4.096-6.144 6.144-14.336 10.24-20.48l10.24-22.528 22.528 12.288c2.048 2.048 8.192 4.096 12.288 6.144 2.048 0 4.096 2.048 6.144 4.096-2.048-4.096-2.048-4.096-2.048-6.144zM770.048 394.752c12.288-4.096 38.912 14.336 49.152 20.48 14.336-32.768 40.96-73.728 40.96-114.688 0-28.672-20.48-49.152-40.96-61.44-8.192-4.096-34.816-12.288-28.672-24.576 12.288-24.576 81.92 4.096 96.256 14.336 28.672 14.336 53.248 40.96 55.296 73.728 10.24 55.296-14.336 108.544-40.96 153.6 12.288 4.096 34.816 8.192 40.96 24.576 4.096 14.336-14.336 20.48-28.672 24.576-28.672 8.192-102.4 32.768-102.4 32.768s-40.96-86.016-45.056-102.4c0-12.288-12.288-32.768 4.096-40.96zM792.576 431.616c4.096 10.24 20.48 47.104 34.816 77.824 24.576-8.192 61.44-20.48 81.92-26.624 0 0-2.048 0-2.048 0-4.096-2.048-8.192-2.048-12.288-4.096l-26.624-10.24 14.336-24.576c24.576-40.96 47.104-88.064 36.864-135.168v-4.096c-2.048-28.672-30.72-47.104-43.008-53.248l-2.048-2.048c-2.048-2.048-8.192-4.096-12.288-6.144 14.336 16.384 22.528 36.864 22.528 57.344 0 38.912-18.432 73.728-32.768 104.448-4.096 6.144-6.144 14.336-10.24 20.48l-10.24 22.528-22.528-12.288c-2.048-2.048-8.192-4.096-12.288-6.144-2.048 0-4.096-2.048-6.144-4.096 0 2.048 2.048 4.096 2.048 6.144zM512 617.984c-126.976 0-229.376-102.4-229.376-229.376s102.4-229.376 229.376-229.376c126.976 0 229.376 102.4 229.376 229.376s-104.448 229.376-229.376 229.376zM512 183.808c-112.64 0-204.8 92.16-204.8 204.8s92.16 204.8 204.8 204.8 204.8-92.16 204.8-204.8c0-112.64-92.16-204.8-204.8-204.8zM512 519.68c-71.68 0-131.072-59.392-131.072-131.072s59.392-131.072 131.072-131.072 131.072 59.392 131.072 131.072c0 73.728-59.392 131.072-131.072 131.072zM512 282.112c-57.344 0-106.496 49.152-106.496 106.496s49.152 106.496 106.496 106.496c59.392 0 106.496-47.104 106.496-106.496 0-57.344-49.152-106.496-106.496-106.496z" />
<glyph unicode="&#xe90a;" glyph-name="check" data-tags="check" d="M989.184 730.624l-49.152 49.152c-8.192 8.192-24.576 16.384-36.864 16.384s-28.672-4.096-36.864-16.384l-448.512-456.704-258.048 251.904c-8.192 8.192-24.576 16.384-36.864 16.384s-24.576-4.096-36.864-16.384l-49.152-49.152c-8.192-8.192-16.384-24.576-16.384-36.864s4.096-24.576 16.384-36.864l342.016-337.92c8.192-8.192 20.48-16.384 32.768-16.384 14.336 0 30.72 6.144 45.056 20.48l532.48 536.576c18.432 26.624 18.432 59.392 0 75.776zM972.8 669.184l-530.432-534.528c-10.24-10.24-20.48-14.336-28.672-14.336-4.096 0-12.288 4.096-18.432 10.24l-344.064 335.872c-8.192 10.24-10.24 16.384-10.24 22.528s6.144 16.384 10.24 22.528l49.152 49.152c8.192 8.192 16.384 10.24 22.528 10.24s16.384-6.144 22.528-10.24l258.048-251.904c4.096-4.096 8.192-6.144 14.336-6.144s10.24 2.048 14.336 6.144l448.512 456.704c0 0 2.048 2.048 2.048 2.048 4.096 4.096 12.288 8.192 20.48 8.192 6.144 0 16.384-6.144 22.528-10.24l49.152-49.152c0 0 2.048-2.048 2.048-2.048 6.144-4.096 6.144-10.24 8.192-14.336-2.048-10.24-4.096-20.48-12.288-30.72z" />
<glyph unicode="&#xe90b;" glyph-name="checked-guy" data-tags="checked-guy" d="M970.752 939.52h-131.072c-20.48 0-32.768-12.288-32.768-32.768v-131.072c0-20.48 12.288-32.768 32.768-32.768h131.072c20.48 0 32.768 12.288 32.768 32.768v131.072c0 18.432-12.288 32.768-32.768 32.768zM974.848 869.888l-77.824-77.824c-4.096-4.096-4.096-4.096-6.144-4.096s-6.144 4.096-6.144 4.096l-49.152 49.152c-4.096 4.096-4.096 4.096-4.096 6.144 0 4.096 4.096 6.144 4.096 6.144l6.144 6.144c4.096 4.096 4.096 4.096 6.144 4.096s6.144-4.096 6.144-4.096l36.864-36.864 65.536 65.536c4.096 4.096 4.096 4.096 6.144 4.096s6.144-4.096 6.144-4.096l6.144-6.144c4.096-2.048 4.096-6.144 0-12.288zM782.336 775.68v65.536h-673.792c-49.152 0-88.064-38.912-88.064-88.064v-706.56c0-49.152 38.912-88.064 88.064-88.064h704.512c49.152 0 88.064 38.912 88.064 88.064v671.744h-61.44c-34.816 0-57.344 22.528-57.344 57.344zM315.392-16.896c0 71.68 2.048 143.36 2.048 212.992 0 30.72 0 61.44 0 92.16 0 14.336 0 32.768 0 45.056s-18.432 16.384-28.672 12.288c-12.288-4.096-10.24-14.336-10.24-24.576 0-34.816 0-75.776 0-75.776s-2.048-30.72-2.048-79.872c0-67.584-108.544-79.872-108.544 10.24s0 112.64 0 112.64 0 32.768 0 59.392c0 67.584 0 139.264 129.024 139.264 38.912 0 124.928 0 163.84 0s124.928 0 163.84 0c129.024 0 129.024-73.728 133.12-141.312 0-26.624 0-59.392 0-59.392s0-22.528 0-112.64c0-90.112-108.544-75.776-108.544-10.24 0 49.152-2.048 79.872-2.048 79.872s0 40.96 0 75.776c0 12.288 2.048 20.48-10.24 24.576-12.288 2.048-28.672 0-28.672-12.288s0-30.72 0-45.056c0-30.72 0-61.44 0-92.16 0-71.68 2.048-141.312 2.048-210.944h-294.912zM337.92 634.368c0 67.584 55.296 122.88 122.88 122.88s122.88-55.296 122.88-122.88c0-67.584-55.296-122.88-122.88-122.88-69.632 0-122.88 55.296-122.88 122.88zM878.592 46.592c0-34.816-28.672-63.488-63.488-63.488h-180.224c0 30.72 0 61.44 0 92.16 0 18.432 0 36.864 0 55.296 4.096-8.192 10.24-16.384 16.384-22.528 14.336-12.288 34.816-20.48 53.248-20.48 0 0 0 0 0 0 36.864 0 77.824 26.624 77.824 88.064v180.224c-4.096 67.584-10.24 157.696-157.696 157.696h-81.92c38.912 26.624 65.536 71.68 65.536 122.88 0 81.92-65.536 147.456-147.456 147.456s-147.456-65.536-147.456-147.456c0-51.2 26.624-96.256 65.536-122.88h-81.92c-153.6 0-153.6-98.304-153.6-163.84v-172.032c0-34.816 12.288-55.296 24.576-65.536 14.336-14.336 32.768-22.528 55.296-22.528v0c28.672 0 57.344 14.336 71.68 43.008 0-16.384 0-34.816 0-51.2 0-30.72 0-63.488 0-94.208h-186.368c-34.816 0-63.488 28.672-63.488 63.488v702.464c0 34.816 28.672 63.488 63.488 63.488h649.216v-40.96c0-49.152 32.768-81.92 81.92-81.92h38.912v-647.168z" />
<glyph unicode="&#xe90c;" glyph-name="checked-guy-f" data-tags="checked-guy-f" d="M839.68 716.288c-34.816 0-57.344 22.528-57.344 57.344v65.536h-673.792c-49.152 0-88.064-38.912-88.064-88.064v-706.56c0-49.152 38.912-88.064 88.064-88.064h204.8c0 79.872 2.048 159.744 2.048 237.568 0 30.72 0 61.44 0 92.16 0 14.336 0 32.768 0 45.056s-18.432 16.384-28.672 12.288c-12.288-4.096-10.24-14.336-10.24-24.576 0-34.816 0-75.776 0-75.776s-2.048-30.72-2.048-79.872c0-67.584-108.544-79.872-108.544 10.24s0 112.64 0 112.64 0 32.768 0 59.392c0 67.584 0 139.264 129.024 139.264 38.912 0 124.928 0 163.84 0s124.928 0 163.84 0c129.024 0 129.024-73.728 133.12-141.312 0-26.624 0-59.392 0-59.392s0-22.528 0-112.64c0-90.112-108.544-75.776-108.544-10.24 0 49.152-2.048 79.872-2.048 79.872s0 40.96 0 75.776c0 12.288 2.048 20.48-10.24 24.576-12.288 2.048-28.672 0-28.672-12.288s0-30.72 0-45.056c0-30.72 0-61.44 0-92.16 0-79.872 2.048-157.696 2.048-235.52h204.8c49.152 0 88.064 38.912 88.064 88.064v671.744h-61.44zM460.8 509.44c-67.584 0-122.88 55.296-122.88 122.88s55.296 122.88 122.88 122.88c67.584 0 122.88-55.296 122.88-122.88s-55.296-122.88-122.88-122.88zM970.752 937.472h-131.072c-20.48 0-32.768-12.288-32.768-32.768v-131.072c0-20.48 12.288-32.768 32.768-32.768h131.072c20.48 0 32.768 12.288 32.768 32.768v131.072c0 18.432-12.288 32.768-32.768 32.768zM974.848 867.84l-77.824-77.824c-4.096-4.096-4.096-4.096-6.144-4.096s-6.144 4.096-6.144 4.096l-49.152 49.152c-4.096 4.096-4.096 4.096-4.096 6.144 0 4.096 4.096 6.144 4.096 6.144l6.144 6.144c4.096 4.096 4.096 4.096 6.144 4.096s6.144-4.096 6.144-4.096l36.864-36.864 65.536 65.536c4.096 4.096 4.096 4.096 6.144 4.096s6.144-4.096 6.144-4.096l6.144-6.144c4.096-2.048 4.096-6.144 0-12.288zM305.152-18.944h321.536v-24.576h-321.536v24.576z" />
<glyph unicode="&#xe90d;" glyph-name="check-f" data-tags="check-f" d="M989.184 730.624l-49.152 49.152c-8.192 8.192-24.576 16.384-36.864 16.384s-28.672-4.096-36.864-16.384l-448.512-456.704-258.048 251.904c-8.192 8.192-24.576 16.384-36.864 16.384s-24.576-4.096-36.864-16.384l-49.152-49.152c-8.192-8.192-16.384-24.576-16.384-36.864s4.096-24.576 16.384-36.864l342.016-337.92c8.192-8.192 20.48-16.384 32.768-16.384 14.336 0 30.72 6.144 45.056 20.48l532.48 536.576c18.432 26.624 18.432 59.392 0 75.776z" />
<glyph unicode="&#xe90e;" glyph-name="chin-chin" data-tags="chin-chin" d="M262.144 214.528l40.96 208.896 309.248 165.888c12.288 6.144 12.288 20.48-2.048 24.576l-544.768 106.496c-12.288 4.096-18.432-16.384-12.288-20.48l225.28-268.288-40.96-208.896-135.168-45.056c-6.144-4.096-6.144-10.24 0-12.288l260.096-49.152c6.144 0 10.24 10.24 6.144 10.24l-106.496 88.064zM96.256 689.664l458.752-92.16v-2.048h-382.976l-75.776 94.208zM192.512 570.88l335.872 2.048-233.472-126.976-102.4 124.928zM184.32 181.76l59.392 16.384 47.104-40.96-106.496 24.576zM966.656 171.52l-112.64 18.432-55.296 165.888 149.504 245.76c4.096 6.144-4.096 18.432-16.384 16.384l-432.128-149.504c-10.24-4.096-10.24-16.384 0-18.432l272.384-100.352 55.296-165.888-77.824-86.016c-4.096-6.144 0-10.24 6.144-10.24l208.896 69.632c16.384 4.096 4.096 14.336 2.048 14.336zM909.312 587.264l-75.776-118.784h-272.384l348.16 118.784zM583.68 443.904h239.616l-45.056-71.68-194.56 71.68zM808.96 132.608l34.816 38.912 49.152-10.24-83.968-28.672zM813.056 792.064l-75.776-22.528-75.776 22.528 24.576-75.776-24.576-75.776 75.776 22.528 75.776-22.528-22.528 75.776 22.528 75.776zM784.384 671.232l-47.104 14.336-45.056-14.336 16.384 47.104-16.384 47.104 45.056-14.336 47.104 14.336-14.336-47.104 14.336-47.104zM354.304 695.808l38.912 16.384 38.912-16.384-6.144 40.96 28.672 30.72-45.056 4.096-16.384 38.912-16.384-38.912-45.056-4.096 32.768-30.72-10.24-40.96zM487.424 392.704l-16.384 38.912-16.384-38.912-45.056-6.144 30.72-28.672-10.24-40.96 38.912 16.384 38.912-16.384-6.144 40.96 28.672 28.672-43.008 6.144z" />
<glyph unicode="&#xe90f;" glyph-name="chin-chin-f" data-tags="chin-chin-f" d="M264.192 208.384l40.96 208.896 311.296 167.936c10.24 6.144 10.24 22.528-4.096 24.576l-546.816 108.544c-12.288 4.096-18.432-16.384-12.288-20.48l227.328-270.336-40.96-208.896-135.168-45.056c-6.144-4.096-6.144-10.24 0-12.288l264.192-49.152c6.144 0 10.24 10.24 6.144 10.24l-110.592 86.016zM559.104 591.36h-385.024l-75.776 94.208 460.8-94.208zM184.32 175.616l59.392 16.384 49.152-40.96-108.544 24.576zM970.752 165.376l-112.64 18.432-55.296 167.936 151.552 247.808c4.096 6.144-4.096 18.432-16.384 16.384l-436.224-151.552c-10.24-4.096-10.24-16.384 0-18.432l276.48-102.4 55.296-167.936-77.824-88.064c-4.096-6.144 0-10.24 6.144-10.24l208.896 69.632c2.048 14.336 2.048 18.432 0 18.432zM839.68 462.336h-274.432l350.208 120.832-75.776-120.832zM813.056 128.512l34.816 38.912 49.152-10.24-83.968-28.672zM743.424 663.040l73.728-22.528-22.528 73.728 22.528 77.824-73.728-22.528-75.776 22.528 22.528-77.824-22.528-73.728zM358.4 693.76l38.912 18.432 36.864-18.432-6.144 40.96 28.672 30.72-45.056 6.144-14.336 36.864-20.48-36.864-43.008-6.144 34.816-30.72zM489.472 388.608l-18.432 38.912-18.432-38.912-43.008-6.144 32.768-28.672-8.192-40.96 36.864 16.384 38.912-16.384-8.192 40.96 28.672 28.672z" />
<glyph unicode="&#xe910;" glyph-name="clock" data-tags="clock" d="M512 939.52c-270.336 0-491.52-221.184-491.52-491.52s221.184-491.52 491.52-491.52 491.52 221.184 491.52 491.52-221.184 491.52-491.52 491.52zM512-18.944c-258.048 0-466.944 208.896-466.944 466.944s208.896 466.944 466.944 466.944c258.048 0 466.944-208.896 466.944-466.944s-208.896-466.944-466.944-466.944zM901.12 468.48h-368.64v368.64c0 12.288-8.192 20.48-20.48 20.48s-20.48-8.192-20.48-20.48v-389.12c0-12.288 8.192-20.48 20.48-20.48h389.12c12.288 0 20.48 8.192 20.48 20.48s-8.192 20.48-20.48 20.48z" />
<glyph unicode="&#xe911;" glyph-name="delete" data-tags="delete" d="M624.64 448l231.424 231.424c32.768 32.768 32.768 81.92 0 112.64s-81.92 32.768-112.64 0l-231.424-231.424-231.424 231.424c-32.768 32.768-81.92 32.768-112.64 0-32.768-32.768-32.768-81.92 0-112.64l231.424-231.424-231.424-231.424c-32.768-32.768-32.768-81.92 0-112.64s81.92-32.768 112.64 0l231.424 231.424 231.424-231.424c32.768-32.768 81.92-32.768 112.64 0 28.672 32.768 28.672 83.968 0 112.64l-231.424 231.424zM837.632 120.32c-10.24-10.24-22.528-16.384-36.864-16.384s-28.672 6.144-38.912 16.384l-249.856 249.856-247.808-249.856c-12.288-14.336-26.624-16.384-36.864-16.384-14.336 0-28.672 6.144-40.96 16.384-10.24 10.24-16.384 22.528-16.384 36.864s6.144 28.672 16.384 40.96l247.808 249.856-249.856 247.808c-10.24 10.24-16.384 24.576-16.384 36.864 0 14.336 6.144 28.672 16.384 40.96s24.576 16.384 38.912 16.384c14.336 0 28.672-6.144 38.912-16.384l249.856-247.808 247.808 249.856c12.288 14.336 26.624 16.384 36.864 16.384 14.336 0 28.672-6.144 40.96-16.384 10.24-10.24 16.384-22.528 16.384-36.864s-6.144-28.672-16.384-40.96l-247.808-249.856 249.856-247.808c18.432-20.48 18.432-57.344-2.048-79.872z" />
<glyph unicode="&#xe912;" glyph-name="delete-f" data-tags="delete-f" d="M856.064 216.576l-231.424 231.424 231.424 231.424c32.768 32.768 32.768 81.92 0 112.64s-81.92 32.768-112.64 0l-231.424-231.424-231.424 231.424c-32.768 32.768-81.92 32.768-112.64 0v0c-32.768-32.768-32.768-81.92 0-112.64l231.424-231.424-231.424-231.424c-32.768-32.768-32.768-81.92 0-112.64s81.92-32.768 112.64 0l231.424 231.424 231.424-231.424c32.768-32.768 81.92-32.768 112.64 0v0c28.672 32.768 28.672 83.968 0 112.64z" />
<glyph unicode="&#xe913;" glyph-name="dialog_3" data-tags="dialog_3" d="M929.792 804.352h-45.056c-16.384 0-34.816 0-34.816 0h-751.616c-43.008 0-77.824-34.816-77.824-77.824v-473.088c0-43.008 34.816-77.824 77.824-77.824h129.024v-94.208c0-30.72 12.288-51.2 30.72-59.392 4.096 0 8.192-4.096 16.384-4.096 12.288 0 24.576 4.096 38.912 20.48l141.312 137.216h468.992c43.008 0 77.824 34.816 77.824 77.824v473.088c2.048 0 2.048 77.824-71.68 77.824zM976.896 253.44c0-28.672-24.576-53.248-53.248-53.248h-479.232l-147.456-143.36c-12.288-12.288-18.432-14.336-22.528-14.336-2.048 2.048-6.144 2.048-8.192 4.096-8.192 6.144-14.336 18.432-14.336 34.816v118.784h-153.6c-28.672 0-53.248 24.576-53.248 53.248v473.088c0 28.672 24.576 53.248 53.248 53.248h831.488c14.336 0 26.624-4.096 34.816-12.288 8.192-10.24 12.288-22.528 12.288-30.72v-483.328z" />
<glyph unicode="&#xe914;" glyph-name="dialog_all" data-tags="dialog_all" d="M944.128 863.744h-540.672c0 0-12.288 0-24.576 0h-32.768c-53.248 0-51.2-47.104-51.2-57.344s0-219.136 0-219.136h-219.136c-30.72 0-55.296-24.576-55.296-57.344v-339.968c0-30.72 24.576-55.296 55.296-55.296h92.16v-67.584c0-22.528 8.192-36.864 22.528-43.008 2.048 0 6.144-2.048 12.288-2.048 8.192 0 18.432 2.048 28.672 14.336l102.4 98.304h337.92c30.72 0 55.296 24.576 55.296 55.296v180.224l61.44-59.392c10.24-12.288 18.432-14.336 28.672-14.336 6.144 0 8.192 2.048 12.288 2.048 12.288 6.144 22.528 20.48 22.528 43.008v67.584h92.16c30.72 0 55.296 24.576 55.296 55.296v342.016c0 32.768-24.576 57.344-55.296 57.344zM702.464 386.56v-196.608c0-16.384-14.336-30.72-30.72-30.72h-348.16l-108.544-106.496c-6.144-6.144-8.192-8.192-10.24-8.192s-2.048 2.048-4.096 2.048c-4.096 2.048-6.144 10.24-6.144 20.48v92.16h-118.784c-16.384 0-30.72 14.336-30.72 30.72v339.968c0 18.432 14.336 32.768 30.72 32.768h600.064c10.24 0 16.384-4.096 18.432-6.144 4.096-6.144 8.192-12.288 8.192-18.432v-143.36c0 0 0-8.192 0-8.192zM944.128 435.712h-116.736v-92.16c0-10.24-2.048-16.384-6.144-18.432-2.048 0-4.096-2.048-4.096-2.048-2.048 0-4.096 2.048-8.192 6.144l-79.872 77.824v122.88c2.048 0 2.048 57.344-51.2 57.344h-32.768c-12.288 0-24.576 0-24.576 0h-301.056v219.136c0 14.336 8.192 32.768 34.816 32.768h587.776c18.432 0 30.72-14.336 30.72-32.768v-339.968c0 0 0-30.72-28.672-30.72zM774.144 554.496c0 0-2.048 0 0 0-6.144 0-10.24 6.144-10.24 10.24 2.048 18.432-2.048 32.768-10.24 43.008-12.288 12.288-32.768 12.288-32.768 12.288-6.144 0-10.24 4.096-10.24 8.192s4.096 10.24 8.192 10.24c0 0 0 0 0 0 2.048 0 28.672 2.048 47.104-18.432 12.288-14.336 18.432-32.768 14.336-57.344 2.048-4.096-2.048-8.192-6.144-8.192zM815.104 554.496c0 0 0 0 0 0-6.144 0-10.24 6.144-10.24 10.24 4.096 32.768-2.048 57.344-18.432 73.728-22.528 24.576-57.344 22.528-57.344 22.528-6.144 0-10.24 4.096-10.24 8.192s4.096 10.24 8.192 10.24c0 0 0 0 0 0 2.048 0 45.056 2.048 71.68-28.672 18.432-20.48 26.624-51.2 22.528-90.112 2.048-2.048-2.048-6.144-6.144-6.144zM858.112 558.592c-2.048 0-2.048 0 0 0-6.144 0-10.24 6.144-10.24 10.24 4.096 45.056-4.096 77.824-24.576 100.352-30.72 32.768-79.872 30.72-79.872 30.72-6.144 0-10.24 4.096-10.24 8.192s4.096 10.24 8.192 10.24c0 0 0 0 0 0 2.048 0 57.344 2.048 94.208-36.864 24.576-26.624 34.816-65.536 30.72-116.736 0-2.048-4.096-6.144-8.192-6.144z" />
<glyph unicode="&#xe915;" glyph-name="dialog_clean" data-tags="dialog_clean" d="M929.792 826.88h-45.056c-16.384 0-34.816 0-34.816 0h-751.616c-43.008 0-77.824-34.816-77.824-79.872v-473.088c0-43.008 34.816-77.824 77.824-77.824h129.024v-94.208c0-30.72 12.288-51.2 30.72-59.392 4.096 0 8.192-4.096 16.384-4.096 12.288 0 24.576 4.096 38.912 20.48l141.312 137.216h468.992c43.008 0 77.824 34.816 77.824 77.824v473.088c2.048 0 2.048 79.872-71.68 79.872zM976.896 273.92c0-28.672-24.576-53.248-53.248-53.248h-479.232l-147.456-143.36c-12.288-12.288-18.432-14.336-22.528-14.336-2.048 2.048-6.144 2.048-8.192 4.096-8.192 6.144-14.336 18.432-14.336 34.816v118.784h-153.6c-28.672 0-53.248 24.576-53.248 53.248v473.088c0 30.72 22.528 55.296 53.248 55.296h831.488c14.336 0 24.576-4.096 32.768-12.288 8.192-10.24 12.288-22.528 14.336-32.768v-483.328zM739.328 720.384l-16.384 16.384c-10.24 10.24-26.624 10.24-38.912 0l-141.312-141.312-22.528 22.528c-22.528 22.528-55.296 26.624-81.92 10.24l-161.792-94.208 262.144-262.144 94.208 161.792c14.336 26.624 10.24 59.392-10.24 81.92l-22.528 22.528 141.312 143.36c8.192 12.288 8.192 28.672-2.048 38.912zM532.48 308.736l-16.384 16.384 2.048 2.048 28.672 71.68c2.048 6.144 0 12.288-6.144 14.336s-12.288 0-14.336-6.144l-26.624-67.584-69.632 69.632 49.152 49.152c4.096 4.096 4.096 10.24 0 14.336s-10.24 4.096-14.336 0l-49.152-49.152-71.68 73.728 67.584 26.624c6.144 2.048 8.192 8.192 6.144 14.336v0c-2.048 6.144-8.192 8.192-14.336 6.144l-73.728-28.672c-2.048 0-2.048-2.048-2.048-2.048l-16.384 16.384 106.496 61.44 178.176-178.176-63.488-104.448zM614.4 448l-8.192-14.336-169.984 169.984 14.336 8.192c18.432 10.24 40.96 8.192 57.344-8.192l98.304-98.304c14.336-16.384 18.432-38.912 8.192-57.344zM724.992 697.856l-141.312-141.312-24.576 24.576 141.312 141.312c2.048 2.048 6.144 2.048 10.24 0l16.384-16.384c0-2.048 0-6.144-2.048-8.192z" />
<glyph unicode="&#xe916;" glyph-name="dialog_clean_2" data-tags="dialog_clean_2" d="M944.128 863.744h-540.672c0 0-12.288 0-24.576 0h-32.768c-53.248 0-53.248-57.344-51.2-57.344v-219.136h-219.136c-30.72 0-55.296-24.576-55.296-57.344v-339.968c0-30.72 24.576-55.296 55.296-55.296h92.16v-67.584c0-22.528 8.192-36.864 22.528-43.008 2.048 0 6.144-2.048 12.288-2.048 8.192 0 18.432 2.048 28.672 14.336l102.4 98.304h337.92c30.72 0 55.296 24.576 55.296 55.296v180.224l61.44-59.392c10.24-12.288 18.432-14.336 28.672-14.336 6.144 0 8.192 2.048 12.288 2.048 12.288 6.144 22.528 20.48 22.528 43.008v67.584h92.16c30.72 0 55.296 24.576 55.296 55.296v342.016c0 32.768-24.576 57.344-55.296 57.344zM702.464 386.56v-196.608c0-16.384-14.336-30.72-30.72-30.72h-348.16l-108.544-106.496c-6.144-6.144-8.192-8.192-10.24-8.192s-2.048 2.048-4.096 2.048c-4.096 2.048-6.144 10.24-6.144 20.48v92.16h-118.784c-16.384 0-30.72 14.336-30.72 30.72v339.968c0 18.432 14.336 32.768 30.72 32.768h600.064c10.24 0 16.384-4.096 18.432-6.144 4.096-6.144 8.192-12.288 8.192-18.432v-151.552zM974.848 466.432c0-16.384-14.336-30.72-30.72-30.72h-116.736v-92.16c0-10.24-2.048-16.384-6.144-18.432-2.048 0-4.096-2.048-4.096-2.048-2.048 0-4.096 2.048-8.192 6.144l-79.872 77.824v122.88c2.048 0 2.048 57.344-51.2 57.344h-32.768c-12.288 0-24.576 0-24.576 0h-303.104v227.328c0 6.144 4.096 14.336 8.192 18.432 2.048 2.048 8.192 6.144 18.432 6.144h598.016c18.432 0 30.72-14.336 30.72-32.768v-339.968zM526.336 521.728c-8.192 8.192-18.432 8.192-28.672 0l-102.4-102.4-16.384 16.384c-16.384 16.384-38.912 18.432-59.392 8.192l-114.688-67.584 188.416-188.416 67.584 116.736c10.24 18.432 8.192 43.008-8.192 59.392l-16.384 16.384 102.4 102.4c6.144 8.192 6.144 20.48-2.048 28.672l-10.24 10.24zM389.12 214.528l-12.288 12.288 2.048 2.048 20.48 51.2c2.048 4.096 0 8.192-4.096 10.24s-8.192 0-10.24-4.096l-18.432-49.152-49.152 49.152 34.816 34.816c2.048 2.048 2.048 8.192 0 10.24s-8.192 2.048-10.24 0l-34.816-34.816-51.2 53.248 49.152 18.432c4.096 2.048 6.144 6.144 4.096 10.24s-6.144 6.144-10.24 4.096l-53.248-20.48c-2.048 0-2.048-2.048-2.048-2.048l-12.288 12.288 75.776 45.056 129.024-129.024-47.104-73.728zM442.368 355.84c10.24-12.288 12.288-28.672 6.144-40.96l-6.144-10.24-122.88 122.88 10.24 6.144c12.288 8.192 28.672 6.144 40.96-6.144l71.68-71.68zM528.384 495.104l-102.4-102.4-18.432 18.432 102.4 102.4c2.048 2.048 4.096 2.048 8.192 0l12.288-12.288c-2.048-2.048-2.048-4.096-2.048-6.144z" />
<glyph unicode="&#xe917;" glyph-name="dialog_close" data-tags="dialog_close" d="M866.304 243.2c0-24.576-20.48-45.056-45.056-45.056h-425.984l-133.12-129.024c-8.192-10.24-12.288-10.24-16.384-10.24-2.048 0-4.096 2.048-6.144 2.048-6.144 4.096-10.24 14.336-10.24 28.672v108.544h-139.264c-24.576 0-45.056 20.48-45.056 45.056v395.264c0 24.576 20.48 45.056 45.056 45.056h692.224v24.576c-12.288 0-24.576 0-24.576 0h-667.648c-38.912 0-69.632-30.72-69.632-69.632v-395.264c0-38.912 30.72-69.632 69.632-69.632h114.688v-83.968c0-26.624 10.24-45.056 26.624-53.248 4.096 0 8.192-4.096 14.336-4.096 10.24 0 22.528 4.096 34.816 18.432l124.928 120.832h415.744c38.912 0 69.632 30.72 69.632 69.632v358.4h-24.576v-356.352zM968.704 820.736h-131.072c-20.48 0-32.768-12.288-32.768-32.768v-131.072c0-20.48 12.288-32.768 32.768-32.768h131.072c20.48 0 32.768 12.288 32.768 32.768v131.072c0 18.432-12.288 32.768-32.768 32.768zM940.032 667.136l-36.864 36.864-36.864-36.864c-4.096-4.096-12.288-2.048-14.336 0l-2.048 2.048c-4.096 4.096-2.048 12.288 0 14.336l36.864 36.864-36.864 36.864c-4.096 4.096-2.048 12.288 0 14.336l2.048 2.048c4.096 4.096 12.288 2.048 14.336 0l38.912-38.912 36.864 36.864c8.192 8.192 14.336 0 16.384-2.048l2.048-2.048c4.096-4.096 2.048-12.288 0-14.336l-38.912-34.816 36.864-36.864c4.096-4.096 2.048-12.288 0-14.336l-2.048-2.048c0-2.048-6.144-8.192-16.384 2.048z" />
<glyph unicode="&#xe918;" glyph-name="dialog_close_2" data-tags="dialog_close_2" d="M952.32 835.072h-540.672c0 0-12.288 0-24.576 0h-32.768c-53.248 0-53.248-57.344-51.2-57.344v-219.136h-219.136c-30.72 0-55.296-24.576-55.296-57.344v-339.968c0-30.72 24.576-55.296 55.296-55.296h92.16v-67.584c0-22.528 8.192-36.864 22.528-43.008 2.048 0 6.144-2.048 12.288-2.048 8.192 0 18.432 2.048 28.672 14.336l102.4 98.304h337.92c30.72 0 55.296 24.576 55.296 55.296v202.752l-24.576 22.528v-225.28c0-16.384-14.336-30.72-30.72-30.72h-348.16l-108.544-106.496c-6.144-6.144-8.192-8.192-10.24-8.192s-2.048 2.048-4.096 2.048c-4.096 2.048-6.144 10.24-6.144 20.48v92.16h-118.784c-16.384 0-30.72 14.336-30.72 30.72v339.968c0 18.432 14.336 32.768 30.72 32.768h241.664v249.856c0 6.144 4.096 14.336 8.192 18.432 2.048 2.048 8.192 6.144 18.432 6.144h598.016c18.432 2.048 32.768-12.288 32.768-30.72v-339.968c0-16.384-14.336-30.72-30.72-30.72h-116.736v-92.16c0-10.24-2.048-16.384-6.144-18.432-2.048 0-4.096-2.048-4.096-2.048-2.048 0-4.096 2.048-8.192 6.144l-79.872 77.824v77.824h-24.576v-90.112l24.576-24.576 61.44-59.392c10.24-12.288 18.432-14.336 28.672-14.336 6.144 0 8.192 2.048 12.288 2.048 12.288 6.144 22.528 20.48 22.528 43.008v67.584h92.16c30.72 0 55.296 24.576 55.296 55.296v342.016c-2.048 30.72-26.624 57.344-57.344 57.344zM626.688 558.592h-317.44v-24.576h323.584v24.576c-4.096 0-6.144 0-6.144 0zM819.2 673.28h-131.072c-20.48 0-32.768-12.288-32.768-32.768v-131.072c0-20.48 12.288-32.768 32.768-32.768h131.072c20.48 0 32.768 12.288 32.768 32.768v131.072c0 18.432-12.288 32.768-32.768 32.768zM806.912 609.792l-36.864-36.864 36.864-36.864c4.096-4.096 2.048-12.288 0-14.336l-2.048-2.048c-4.096-4.096-12.288-2.048-14.336 0l-36.864 36.864-38.912-38.912c-4.096-4.096-12.288-2.048-14.336 0l-2.048 2.048c-4.096 4.096-2.048 12.288 0 14.336l38.912 38.912-36.864 36.864c-8.192 8.192 0 14.336 2.048 16.384l2.048 2.048c4.096 4.096 12.288 2.048 14.336 0l36.864-36.864 36.864 36.864c4.096 4.096 12.288 2.048 14.336 0l2.048-2.048c2.048 2.048 8.192-6.144-2.048-16.384z" />
<glyph unicode="&#xe919;" glyph-name="dialog_delete" data-tags="dialog_delete" d="M649.216 636.416l-12.288 12.288c-8.192 8.192-24.576 8.192-34.816 0l-90.112-90.112-90.112 90.112c-8.192 8.192-24.576 8.192-34.816 0l-12.288-12.288c-8.192-8.192-8.192-24.576 0-34.816l90.112-90.112-90.112-90.112c-8.192-8.192-8.192-24.576 0-34.816l12.288-12.288c8.192-8.192 24.576-8.192 34.816 0l90.112 90.112 90.112-90.112c8.192-8.192 24.576-8.192 34.816 0l12.288 12.288c8.192 8.192 8.192 24.576 0 34.816l-90.112 88.064 90.112 90.112c8.192 14.336 8.192 28.672 0 36.864zM931.84 839.168h-45.056c-16.384 0-34.816 0-34.816 0h-751.616c-43.008 0-77.824-34.816-77.824-79.872v-473.088c0-43.008 34.816-77.824 77.824-77.824h129.024v-94.208c0-30.72 12.288-51.2 30.72-59.392 4.096 0 8.192-4.096 16.384-4.096 12.288 0 24.576 4.096 38.912 20.48l141.312 137.216h468.992c43.008 0 77.824 34.816 77.824 77.824v473.088c2.048 0 2.048 79.872-71.68 79.872zM978.944 286.208c0-28.672-24.576-53.248-53.248-53.248h-479.232l-147.456-143.36c-12.288-12.288-18.432-14.336-22.528-14.336-2.048 2.048-6.144 2.048-8.192 4.096-8.192 6.144-14.336 18.432-14.336 34.816v118.784h-153.6c-28.672 0-53.248 24.576-53.248 53.248v473.088c0 30.72 22.528 55.296 53.248 55.296h831.488c14.336 0 24.576-4.096 32.768-12.288 8.192-10.24 12.288-22.528 14.336-32.768v-483.328z" />
<glyph unicode="&#xe91a;" glyph-name="dialog_delete_2" data-tags="dialog_delete_2" d="M444.416 261.632l-73.728 73.728-73.728-73.728c-8.192-8.192-22.528-6.144-28.672 0l-6.144 6.144c-8.192 8.192-6.144 22.528 0 28.672l73.728 73.728-73.728 73.728c-8.192 8.192-6.144 22.528 0 28.672l6.144 6.144c8.192 8.192 22.528 6.144 28.672 0l73.728-73.728 73.728 73.728c14.336 14.336 28.672 0 32.768-6.144l6.144-6.144c8.192-8.192 6.144-22.528 0-28.672l-73.728-75.776 73.728-73.728c8.192-8.192 6.144-22.528 0-28.672l-2.048-2.048c-4.096-2.048-18.432-16.384-36.864 4.096zM944.128 861.696h-540.672c0 0-12.288 0-24.576 0h-32.768c-53.248 0-53.248-57.344-51.2-57.344v-219.136h24.576v227.328c0 6.144 4.096 14.336 8.192 18.432 2.048 2.048 6.144 6.144 16.384 6.144h598.016c18.432 0 30.72-14.336 30.72-32.768v-339.968c0-16.384-14.336-30.72-30.72-30.72h-116.736v-92.16c0-10.24-2.048-16.384-6.144-18.432-2.048 0-4.096-2.048-4.096-2.048-2.048 0-4.096 2.048-8.192 6.144l-79.872 77.824v-34.816l61.44-59.392c10.24-12.288 18.432-14.336 28.672-14.336 6.144 0 8.192 2.048 12.288 2.048 12.288 6.144 22.528 20.48 22.528 43.008v65.536h92.16c30.72 0 55.296 24.576 55.296 55.296v342.016c0 32.768-24.576 57.344-55.296 57.344zM675.84 560.64c10.24 0 16.384-4.096 18.432-6.144 4.096-6.144 8.192-12.288 8.192-18.432v-153.6l24.576-24.576v169.984c2.048 0 2.048 57.344-51.2 57.344h-32.768c-12.288 0-24.576 0-24.576 0h-301.056v-24.576h358.4zM702.464 187.904c0-16.384-14.336-30.72-30.72-30.72h-348.16l-108.544-106.496c-6.144-6.144-8.192-8.192-10.24-8.192s-2.048 2.048-4.096 2.048c-4.096 2.048-6.144 10.24-6.144 20.48v92.16h-118.784c-16.384 0-30.72 14.336-30.72 30.72v339.968c0 18.432 14.336 32.768 30.72 32.768h258.048v24.576h-258.048c-30.72 0-55.296-24.576-55.296-57.344v-339.968c0-30.72 24.576-55.296 55.296-55.296h92.16v-67.584c0-22.528 8.192-36.864 22.528-43.008 2.048 0 6.144-2.048 12.288-2.048 8.192 0 18.432 2.048 28.672 14.336l102.4 98.304h337.92c30.72 0 55.296 24.576 55.296 55.296v182.272l-24.576 24.576v-206.848z" />
<glyph unicode="&#xe91b;" glyph-name="dollar" data-tags="dollar" d="M552.96 531.968c-106.496 32.768-135.168 53.248-135.168 81.92 0 53.248 77.824 65.536 106.496 65.536 45.056 0 114.688-36.864 139.264-57.344 8.192-4.096 16.384-8.192 24.576-8.192 12.288 0 24.576 8.192 32.768 16.384l45.056 65.536c12.288 20.48 8.192 45.056-12.288 57.344-8.192 4.096-77.824 53.248-155.648 73.728v71.68c0 24.576-16.384 40.96-40.96 40.96h-81.92c-24.576 0-40.96-16.384-40.96-40.96v-65.536c-102.4-24.576-196.608-98.304-196.608-221.184 0-155.648 151.552-204.8 251.904-237.568h2.048c106.496-36.864 126.976-53.248 126.976-77.824 0-57.344-61.44-65.536-98.304-65.536-65.536 0-143.36 40.96-176.128 65.536-8.192 4.096-16.384 8.192-24.576 8.192-12.288 0-24.576-4.096-32.768-16.384l-49.152-61.44c-8.192-8.192-8.192-20.48-8.192-32.768s8.192-20.48 16.384-28.672c28.672-20.48 98.304-69.632 188.416-90.112v-77.824c0-24.576 16.384-40.96 40.96-40.96h81.92c24.576 0 40.96 16.384 40.96 40.96v81.92c135.168 28.672 196.608 131.072 196.608 217.088 6.144 153.6-143.36 202.752-241.664 235.52zM591.872 103.936l-18.432-4.096v-102.4c0-10.24-6.144-16.384-16.384-16.384h-81.92c-10.24 0-16.384 6.144-16.384 16.384v98.304l-18.432 4.096c-83.968 18.432-151.552 65.536-178.176 83.968-4.096 4.096-8.192 8.192-8.192 10.24 0 4.096 0 14.336 2.048 16.384l2.048 2.048 49.152 61.44c2.048 2.048 4.096 6.144 12.288 6.144 2.048 0 8.192-2.048 12.288-4.096 38.912-28.672 118.784-69.632 188.416-69.632 110.592 0 122.88 63.488 122.88 90.112 0 43.008-36.864 63.488-143.36 100.352l-4.096 2.048h-2.048c-98.304 32.768-231.424 77.824-231.424 212.992 0 114.688 92.16 176.128 178.176 196.608l18.432 4.096v86.016c0 10.24 6.144 16.384 16.384 16.384h81.92c10.24 0 16.384-6.144 16.384-16.384v-90.112l18.432-4.096c61.44-16.384 118.784-51.2 141.312-65.536 6.144-4.096 8.192-6.144 10.24-6.144 8.192-4.096 6.144-16.384 2.048-22.528l-43.008-61.44c-6.144-4.096-10.24-8.192-14.336-8.192-2.048 0-6.144 2.048-10.24 4.096-28.672 22.528-100.352 61.44-153.6 61.44s-131.072-24.576-131.072-90.112c0-49.152 51.2-73.728 151.552-104.448 98.304-32.768 229.376-75.776 225.28-210.944 0-81.92-55.296-172.032-178.176-196.608z" />
<glyph unicode="&#xe91c;" glyph-name="dollar-f" data-tags="dollar-f" d="M557.056 531.968v0c-106.496 32.768-135.168 53.248-135.168 81.92 0 53.248 77.824 65.536 106.496 65.536 45.056 0 114.688-36.864 139.264-57.344 8.192-4.096 16.384-8.192 24.576-8.192 12.288 0 24.576 8.192 32.768 16.384l45.056 65.536c12.288 20.48 8.192 45.056-12.288 57.344-8.192 4.096-77.824 53.248-155.648 73.728v71.68c0 24.576-16.384 40.96-40.96 40.96h-81.92c-24.576 0-40.96-16.384-40.96-40.96v-65.536c-102.4-24.576-196.608-98.304-196.608-221.184 0-155.648 151.552-204.8 251.904-237.568h2.048c106.496-36.864 126.976-53.248 126.976-77.824 0-57.344-61.44-65.536-98.304-65.536-65.536 0-143.36 40.96-176.128 65.536-8.192 4.096-16.384 8.192-24.576 8.192-12.288 0-24.576-4.096-32.768-16.384l-49.152-61.44c-8.192-8.192-8.192-20.48-8.192-32.768s8.192-20.48 16.384-28.672c28.672-20.48 98.304-69.632 188.416-90.112v-77.824c0-24.576 16.384-40.96 40.96-40.96h81.92c24.576 0 40.96 16.384 40.96 40.96v81.92c135.168 28.672 196.608 131.072 196.608 217.088 6.144 153.6-143.36 202.752-241.664 235.52z" />
<glyph unicode="&#xe91d;" glyph-name="down" data-tags="down" d="M985.088 667.136l-32.768 30.72c-12.288 14.336-30.72 20.48-49.152 20.48s-36.864-10.24-51.2-18.432l-319.488-329.728c-4.096-4.096-10.24-4.096-18.432-4.096-10.24 0-14.336 0-18.432 4.096l-321.536 327.68c-14.336 14.336-32.768 18.432-51.2 18.432s-36.864-10.24-51.2-18.432l-32.768-32.768c-14.336-14.336-18.432-32.768-18.432-51.2s4.096-36.864 18.432-51.2l419.84-423.936c14.336-14.336 32.768-18.432 51.2-18.432 16.384-2.048 36.864 8.192 51.2 18.432l415.744 425.984c18.432 18.432 26.624 36.864 26.624 55.296s-4.096 32.768-18.432 47.104zM960.512 581.12l-415.744-423.936c-12.288-8.192-24.576-12.288-30.72-12.288h-4.096c-16.384 0-26.624 4.096-34.816 10.24l-417.792 423.936c-8.192 8.192-12.288 18.432-12.288 34.816s4.096 26.624 10.24 34.816l30.72 30.72c10.24 6.144 24.576 14.336 36.864 14.336 16.384 0 26.624-4.096 34.816-10.24l321.536-327.68c12.288-12.288 24.576-12.288 36.864-12.288 10.24 0 24.576 0 34.816 12.288l317.44 327.68c10.24 6.144 24.576 14.336 36.864 14.336 8.192 0 22.528-2.048 30.72-12.288v0l32.768-30.72c8.192-8.192 10.24-14.336 10.24-28.672 0-18.432-6.144-30.72-18.432-45.056z" />
<glyph unicode="&#xe91e;" glyph-name="down-f" data-tags="down-f" d="M38.912 591.36l419.84-423.936c14.336-14.336 32.768-18.432 51.2-18.432 16.384-2.048 36.864 8.192 51.2 18.432l415.744 425.984c18.432 18.432 26.624 36.864 26.624 55.296s-4.096 32.768-18.432 47.104l-32.768 30.72c-12.288 14.336-30.72 20.48-49.152 20.48s-36.864-10.24-51.2-18.432l-319.488-329.728c-4.096-4.096-10.24-4.096-18.432-4.096-10.24 0-14.336 0-18.432 4.096l-321.536 327.68c-14.336 14.336-32.768 18.432-51.2 18.432s-36.864-10.24-51.2-18.432l-32.768-32.768c-14.336-14.336-18.432-32.768-18.432-51.2s4.096-36.864 18.432-51.2z" />
<glyph unicode="&#xe91f;" glyph-name="edit" data-tags="edit" d="M976.896 861.696l-57.344 53.248c-32.768 32.768-81.92 32.768-114.688 0l-548.864-550.912-57.344-215.040c-4.096-8.192 4.096-16.384 12.288-12.288l217.088 57.344 550.912 550.912c32.768 34.816 32.768 79.872-2.048 116.736zM231.424 171.52l38.912 139.264 100.352-100.352-139.264-38.912zM960.512 761.344l-544.768-544.768-135.168 135.168 542.72 546.816c10.24 10.24 24.576 16.384 40.96 16.384 14.336 0 28.672-6.144 40.96-16.384l57.344-53.248c22.528-26.624 22.528-57.344-2.048-83.968zM980.992 69.12c0-47.104-38.912-88.064-88.064-88.064h-757.76c-47.104 0-88.064 38.912-88.064 88.064v759.808c0 47.104 38.912 88.064 88.064 88.064h614.4v22.528h-614.4c-61.44 0-112.64-51.2-112.64-112.64v-759.808c0-61.44 51.2-112.64 112.64-112.64h759.808c61.44 0 112.64 51.2 112.64 112.64v614.4h-24.576l-2.048-612.352z" />
<glyph unicode="&#xe920;" glyph-name="edit-f" data-tags="edit-f" d="M149.504 81.408l124.928 34.816c4.096 2.048 4.096 6.144 2.048 8.192l-90.112 90.112c-2.048 2.048-8.192 2.048-8.192-2.048l-34.816-124.928c-2.048-2.048 2.048-6.144 6.144-6.144zM817.152 810.496c-10.24 10.24-24.576 16.384-40.96 16.384-14.336 0-28.672-6.144-40.96-16.384l-542.72-544.768c-2.048-2.048-2.048-6.144 0-8.192l131.072-131.072c2.048-2.048 6.144-2.048 8.192 0l542.72 546.816c26.624 26.624 26.624 57.344 2.048 83.968l-59.392 53.248zM890.88 939.52h-755.712c-61.44 0-112.64-51.2-112.64-112.64v-755.712c0-63.488 51.2-112.64 112.64-112.64h755.712c63.488 0 112.64 51.2 112.64 112.64v755.712c2.048 61.44-49.152 112.64-112.64 112.64zM892.928 654.848l-552.96-552.96c0 0-2.048-2.048-2.048-2.048l-215.040-55.296c-8.192-4.096-16.384 4.096-12.288 12.288l57.344 215.040c0 0 0 2.048 2.048 2.048l552.96 552.96c32.768 32.768 81.92 32.768 114.688 0l57.344-53.248c32.768-36.864 32.768-81.92-2.048-118.784z" />
<glyph unicode="&#xe921;" glyph-name="exchange" data-tags="exchange" d="M983.040 675.328l-452.608 215.040c-10.24 4.096-24.576 4.096-36.864 0l-452.608-215.040c-14.336-8.192-22.528-24.576-18.432-43.008s20.48-28.672 38.912-28.672h897.024c18.432 0 36.864 10.24 40.96 28.672 8.192 18.432 2.048 36.864-16.384 43.008zM976.896 642.56v-4.096c-2.048-6.144-10.24-10.24-16.384-10.24h-899.072c-2.048 0-12.288 0-14.336 10.24-4.096 8.192 2.048 14.336 4.096 14.336l450.56 215.040c4.096 0 6.144 2.048 10.24 2.048s8.192 0 8.192-2.048l452.608-215.040h2.048c2.048 0 2.048-2.048 2.048-2.048 0-2.048 0-6.144 0-8.192zM931.84 165.376h-839.68c-14.336 0-28.672-14.336-28.672-28.672v-88.064c0-18.432 14.336-28.672 28.672-28.672h839.68c18.432 0 28.672 14.336 28.672 28.672v88.064c0 14.336-14.336 28.672-28.672 28.672zM935.936 48.64c0-4.096-2.048-4.096-4.096-4.096h-839.68c-4.096 0-4.096 2.048-4.096 4.096v88.064c0 2.048 2.048 4.096 4.096 4.096h839.68c2.048 0 4.096-2.048 4.096-4.096v-88.064zM192.512 202.24c18.432 0 28.672 14.336 28.672 28.672v307.2c0 14.336-14.336 28.672-28.672 28.672h-88.064c-18.432 0-28.672-14.336-28.672-28.672v-305.152c0-16.384 14.336-30.72 28.672-30.72h88.064zM100.352 232.96v305.152c0 4.096 2.048 4.096 4.096 4.096h88.064c2.048 0 4.096-2.048 4.096-4.096v-307.2c0-4.096-2.048-4.096-4.096-4.096h-88.064c-2.048 0-4.096 2.048-4.096 6.144zM917.504 202.24c18.432 0 28.672 14.336 28.672 28.672v307.2c0 14.336-14.336 28.672-28.672 28.672h-88.064c-18.432 0-28.672-14.336-28.672-28.672v-305.152c0-16.384 10.24-30.72 28.672-30.72h88.064zM825.344 232.96v305.152c0 4.096 2.048 4.096 4.096 4.096h88.064c2.048 0 4.096-2.048 4.096-4.096v-307.2c0-4.096-2.048-4.096-4.096-4.096h-88.064c-2.048 0-4.096 0-4.096 6.144zM675.84 202.24c18.432 0 28.672 14.336 28.672 28.672v307.2c0 14.336-14.336 28.672-28.672 28.672h-88.064c-18.432 0-28.672-14.336-28.672-28.672v-305.152c-2.048-16.384 12.288-30.72 30.72-30.72h86.016zM583.68 232.96v305.152c0 4.096 2.048 4.096 4.096 4.096h88.064c2.048 0 4.096-2.048 4.096-4.096v-307.2c0-4.096-2.048-4.096-4.096-4.096h-86.016c-2.048 0-4.096 2.048-6.144 2.048v4.096zM434.176 202.24c14.336 0 28.672 14.336 28.672 28.672v307.2c0 14.336-14.336 28.672-28.672 28.672h-88.064c-18.432 0-28.672-14.336-28.672-28.672v-305.152c-2.048-16.384 14.336-30.72 28.672-30.72h88.064zM339.968 230.912v307.2c0 4.096 2.048 4.096 4.096 4.096h88.064c2.048 0 4.096-2.048 4.096-4.096v-307.2c0-2.048-2.048-4.096-4.096-4.096h-88.064c0 0-2.048 2.048-4.096 4.096z" />
<glyph unicode="&#xe922;" glyph-name="exchange-f" data-tags="exchange-f" d="M983.040 663.040l-452.608 215.040c-10.24 4.096-24.576 4.096-36.864 0l-452.608-215.040c-14.336-8.192-22.528-24.576-18.432-43.008s20.48-28.672 38.912-28.672h897.024c18.432 0 36.864 10.24 40.96 28.672 8.192 18.432 2.048 36.864-16.384 43.008zM931.84 153.088h-839.68c-14.336 0-28.672-14.336-28.672-28.672v-88.064c0-18.432 14.336-28.672 28.672-28.672h839.68c18.432 0 28.672 14.336 28.672 28.672v88.064c0 14.336-14.336 28.672-28.672 28.672zM104.448 189.952h88.064c18.432 0 28.672 14.336 28.672 28.672v307.2c0 14.336-14.336 28.672-28.672 28.672h-88.064c-18.432 0-28.672-14.336-28.672-28.672v-305.152c0-16.384 14.336-30.72 28.672-30.72zM829.44 189.952h88.064c18.432 0 28.672 14.336 28.672 28.672v307.2c0 14.336-14.336 28.672-28.672 28.672h-88.064c-18.432 0-28.672-14.336-28.672-28.672v-305.152c0-16.384 10.24-30.72 28.672-30.72zM589.824 189.952h86.016c18.432 0 28.672 14.336 28.672 28.672v307.2c0 14.336-14.336 28.672-28.672 28.672h-88.064c-18.432 0-28.672-14.336-28.672-28.672v-305.152c-2.048-16.384 12.288-30.72 30.72-30.72zM346.112 189.952h88.064c14.336 0 28.672 14.336 28.672 28.672v307.2c0 14.336-14.336 28.672-28.672 28.672h-88.064c-18.432 0-28.672-14.336-28.672-28.672v-305.152c-2.048-16.384 14.336-30.72 28.672-30.72z" />
<glyph unicode="&#xe923;" glyph-name="exchange-f-with-r" data-tags="exchange-f-with-r" d="M528.384 785.92h-36.864v-40.96h36.864c10.24 0 18.432 8.192 18.432 18.432s-8.192 22.528-18.432 22.528zM983.040 673.28l-450.56 215.040c-10.24 4.096-24.576 4.096-36.864 0l-456.704-215.040c-14.336-8.192-20.48-26.624-18.432-45.056 4.096-18.432 22.528-28.672 40.96-28.672h899.072c18.432 0 36.864 10.24 40.96 28.672 6.144 18.432 0 36.864-18.432 45.056zM575.488 665.088c4.096-4.096 0-10.24-4.096-14.336h-18.432c-4.096 0-8.192 4.096-8.192 4.096l-28.672 55.296h-22.528v-51.2c0-8.192-4.096-10.24-10.24-10.24h-10.24c-8.192 0-10.24 4.096-10.24 10.24v145.408c0 8.192 4.096 10.24 10.24 10.24h55.296c28.672 0 51.2-22.528 51.2-51.2 0-22.528-14.336-40.96-32.768-47.104l28.672-51.2zM931.84 163.328h-841.728c-14.336 0-28.672-14.336-28.672-28.672v-88.064c0-18.432 14.336-28.672 28.672-28.672h841.728c18.432 0 28.672 14.336 28.672 28.672v88.064c0 14.336-14.336 28.672-28.672 28.672zM104.448 200.192h88.064c18.432 0 28.672 14.336 28.672 28.672v305.152c0 18.432-14.336 28.672-28.672 28.672h-88.064c-18.432 0-28.672-14.336-28.672-28.672v-305.152c0-14.336 14.336-28.672 28.672-28.672zM829.44 200.192h88.064c18.432 0 28.672 14.336 28.672 28.672v305.152c0 18.432-14.336 28.672-28.672 28.672h-88.064c-18.432 0-28.672-14.336-28.672-28.672v-305.152c0-14.336 10.24-28.672 28.672-28.672zM589.824 200.192h86.016c18.432 0 28.672 14.336 28.672 28.672v305.152c0 18.432-14.336 28.672-28.672 28.672h-88.064c-18.432 0-28.672-14.336-28.672-28.672v-305.152c-2.048-14.336 12.288-28.672 30.72-28.672zM346.112 200.192h88.064c14.336 0 28.672 14.336 28.672 28.672v305.152c0 18.432-14.336 28.672-28.672 28.672h-88.064c-18.432 0-28.672-14.336-28.672-28.672v-305.152c-2.048-14.336 14.336-28.672 28.672-28.672z" />
<glyph unicode="&#xe924;" glyph-name="exchange-with-r" data-tags="exchange-with-r" d="M983.040 673.28l-450.56 215.040c-10.24 4.096-24.576 4.096-36.864 0l-456.704-215.040c-14.336-8.192-20.48-26.624-18.432-45.056 4.096-18.432 22.528-28.672 40.96-28.672h899.072c18.432 0 36.864 10.24 40.96 28.672 6.144 18.432 0 36.864-18.432 45.056zM978.944 636.416v0-2.048c-2.048-6.144-10.24-10.24-16.384-10.24h-901.12c-6.144 0-14.336 2.048-16.384 8.192 0 8.192 2.048 16.384 6.144 18.432l452.608 215.040c4.096 0 6.144 2.048 10.24 2.048s8.192 0 8.192-2.048l448.512-215.040c4.096 0 10.24-4.096 8.192-14.336zM931.84 163.328h-841.728c-14.336 0-28.672-14.336-28.672-28.672v-88.064c0-18.432 14.336-28.672 28.672-28.672h841.728c18.432 0 28.672 14.336 28.672 28.672v88.064c0 14.336-14.336 28.672-28.672 28.672zM935.936 46.592c0-4.096-2.048-4.096-4.096-4.096h-841.728c-4.096 0-4.096 2.048-4.096 4.096v88.064c0 2.048 2.048 4.096 4.096 4.096h841.728c2.048 0 4.096-2.048 4.096-4.096v-88.064zM192.512 200.192c18.432 0 28.672 14.336 28.672 28.672v305.152c0 18.432-14.336 28.672-28.672 28.672h-88.064c-18.432 0-28.672-14.336-28.672-28.672v-305.152c0-14.336 14.336-28.672 28.672-28.672h88.064zM100.352 228.864v305.152c0 4.096 2.048 4.096 4.096 4.096h88.064c4.096 0 4.096-2.048 4.096-4.096v-305.152c0-4.096-2.048-4.096-4.096-4.096h-88.064c-2.048 0-4.096 2.048-4.096 4.096zM917.504 200.192c18.432 0 28.672 14.336 28.672 28.672v305.152c0 18.432-14.336 28.672-28.672 28.672h-88.064c-18.432 0-28.672-14.336-28.672-28.672v-305.152c0-14.336 10.24-28.672 28.672-28.672h88.064zM825.344 228.864v305.152c0 4.096 2.048 4.096 4.096 4.096h88.064c4.096 0 4.096-2.048 4.096-4.096v-305.152c0-4.096-2.048-4.096-4.096-4.096h-88.064c-2.048 0-4.096 0-4.096 4.096zM675.84 200.192c18.432 0 28.672 14.336 28.672 28.672v305.152c0 18.432-14.336 28.672-28.672 28.672h-88.064c-18.432 0-28.672-14.336-28.672-28.672v-305.152c-2.048-14.336 12.288-28.672 30.72-28.672h86.016zM583.68 226.816v307.2c0 4.096 2.048 4.096 4.096 4.096h88.064c4.096 0 4.096-2.048 4.096-4.096v-305.152c0-4.096-2.048-4.096-4.096-4.096h-86.016c-4.096 0-6.144 2.048-6.144 2.048zM434.176 200.192c14.336 0 28.672 14.336 28.672 28.672v305.152c0 18.432-14.336 28.672-28.672 28.672h-88.064c-18.432 0-28.672-14.336-28.672-28.672v-305.152c-2.048-14.336 14.336-28.672 28.672-28.672h88.064zM342.016 226.816v307.2c0 4.096 2.048 4.096 4.096 4.096h88.064c4.096 0 4.096-2.048 4.096-4.096v-305.152c0-2.048-2.048-4.096-4.096-4.096h-88.064c0 0-2.048 2.048-4.096 2.048zM546.816 716.288c18.432 6.144 32.768 24.576 32.768 47.104 0 28.672-22.528 51.2-51.2 51.2h-55.296c-6.144 0-10.24-2.048-10.24-10.24v-145.408c0-6.144 2.048-10.24 10.24-10.24h10.24c6.144 0 10.24 2.048 10.24 10.24v51.2h22.528l28.672-55.296c0 0 4.096-4.096 8.192-4.096h18.432c4.096 4.096 8.192 10.24 4.096 14.336l-28.672 51.2zM528.384 744.96h-36.864v40.96h36.864c10.24 0 18.432-12.288 18.432-22.528s-8.192-18.432-18.432-18.432z" />
<glyph unicode="&#xe925;" glyph-name="exit" data-tags="exit" d="M737.28 677.376l-22.528-26.624 186.368-186.368h-526.336v-32.768h526.336l-186.368-186.368 22.528-26.624 235.52 229.376zM671.744 288.256v-292.864c0-8.192-10.24-14.336-14.336-14.336h-565.248c-8.192 0-14.336 8.192-14.336 12.288v907.264c0 8.192 8.192 14.336 14.336 14.336h567.296c6.144 0 12.288-8.192 14.336-16.384v-413.696h22.528v415.744c0 18.432-16.384 38.912-36.864 38.912h-567.296c-20.48 0-40.96-16.384-40.96-38.912v-907.264c0-16.384 16.384-36.864 40.96-36.864h567.296c16.384 0 38.912 16.384 38.912 38.912v415.744h-24.576v-122.88z" />
<glyph unicode="&#xe926;" glyph-name="exit-f" data-tags="exit-f" d="M364.544 431.616v32.768c0 12.288 8.192 20.48 20.48 20.48h323.584v415.744c-2.048 18.432-18.432 38.912-38.912 38.912h-567.296c-18.432 0-38.912-16.384-38.912-38.912v-907.264c0-16.384 16.384-36.864 38.912-36.864h567.296c16.384 0 38.912 16.384 38.912 38.912v415.744h-323.584c-12.288 0-20.48 8.192-20.48 20.48zM749.568 677.376l-24.576-26.624 186.368-186.368h-526.336v-32.768h526.336l-186.368-186.368 24.576-26.624 233.472 229.376z" />
<glyph unicode="&#xe927;" glyph-name="eye" data-tags="eye" d="M997.376 448c-10.24 10.24-247.808 233.472-471.040 243.712-4.096 0-10.24 0-12.288 0-6.144 0-10.24 0-16.384 0-223.232-10.24-460.8-233.472-468.992-243.712-4.096-4.096-8.192-8.192-8.192-12.288s4.096-10.24 6.144-12.288c10.24-10.24 245.76-233.472 471.040-241.664 6.144 0 10.24 0 16.384 0 4.096 0 10.24 0 12.288 0 223.232 10.24 462.848 233.472 471.040 241.664 4.096 4.096 10.24 16.384 0 24.576zM61.44 435.712c34.816 32.768 147.456 124.928 270.336 180.224-45.056-45.056-75.776-108.544-75.776-180.224 0-69.632 28.672-135.168 75.776-180.224-122.88 55.296-235.52 147.456-270.336 180.224zM512 212.48c-120.832 0-221.184 98.304-221.184 223.232s98.304 223.232 221.184 223.232c120.832 0 223.232-98.304 223.232-223.232s-100.352-223.232-223.232-223.232zM686.080 255.488c45.056 45.056 75.776 110.592 75.776 180.224 0 71.68-28.672 135.168-75.776 180.224 124.928-55.296 235.52-147.456 272.384-180.224-36.864-32.768-143.36-124.928-272.384-180.224zM659.456 435.712c0-81.438-66.018-147.456-147.456-147.456s-147.456 66.018-147.456 147.456c0 81.438 66.018 147.456 147.456 147.456s147.456-66.018 147.456-147.456z" />
<glyph unicode="&#xe928;" glyph-name="eye-close" data-tags="eye-close" d="M65.536 460.288c34.816 32.768 147.456 122.88 270.336 178.176-45.056-45.056-75.776-106.496-75.776-178.176 0-59.392 22.528-114.688 55.296-155.648l22.528 22.528c-28.672 34.816-45.056 83.968-45.056 133.12 2.048 122.88 98.304 221.184 223.232 221.184 49.152 0 98.304-16.384 133.12-45.056l38.912 38.912c-51.2 22.528-106.496 34.816-161.792 38.912-4.096 0-10.24 0-12.288 0-6.144 0-10.24 0-16.384 0-227.328-10.24-460.8-231.424-471.040-241.664-4.096-4.096-6.144-6.144-6.144-12.288 0-4.096 4.096-10.24 6.144-12.288 6.144-6.144 114.688-106.496 253.952-178.176l26.624 26.624c-110.592 53.248-208.896 131.072-241.664 163.84zM997.376 472.576c-6.144 6.144-116.736 106.496-253.952 178.176l-26.624-26.624c110.592-55.296 208.896-137.216 241.664-165.888-34.816-32.768-147.456-122.88-270.336-178.176 45.056 45.056 75.776 110.592 75.776 178.176 0 61.44-20.48 114.688-55.296 155.648l-20.48-20.48c28.672-34.816 49.152-83.968 49.152-137.216 0-122.88-100.352-221.184-221.184-221.184-51.2 0-98.304 16.384-137.216 49.152l-43.008-43.008c51.2-22.528 106.496-34.816 161.792-38.912 6.144 0 10.24 0 16.384 0 4.096 0 10.24 0 12.288 0 223.232 12.288 460.8 233.472 471.040 243.712 4.096 4.096 6.144 6.144 6.144 12.288 0 4.096-4.096 10.24-6.144 14.336zM516.096 312.832c81.92 0 147.456 65.536 147.456 147.456 0 28.672-10.24 59.392-26.624 83.968l-204.8-204.8c24.576-16.384 53.248-26.624 83.968-26.624zM368.64 460.288c0-28.672 10.24-59.392 26.624-81.92l200.704 200.704c-22.528 16.384-51.2 26.624-81.92 26.624-79.872 0-145.408-67.584-145.408-145.408zM786.432 714.24c6.144 6.144 6.144 10.24 0 16.384v0c-6.144 6.144-10.24 6.144-16.384 0l-532.48-532.48c-6.144-6.144-6.144-10.24 0-16.384v0c6.144-6.144 10.24-6.144 16.384 0l532.48 532.48z" />
<glyph unicode="&#xe929;" glyph-name="feed-settings" data-tags="feed-settings-47" d="M770.048 265.728l-98.304 79.872v147.456c0 12.288-8.192 20.48-20.48 20.48h-83.968c-12.288 0-20.48-8.192-20.48-20.48v-47.104l-96.256 79.872c0 0-32.768 28.672-51.2 28.672-16.384 0-55.296-28.672-55.296-28.672l-315.392-260.096c-8.192-8.192-8.192-20.48-4.096-28.672l24.576-32.768c8.192-8.192 20.48-12.288 28.672-4.096l290.816 241.664c16.384 12.288 40.96 12.288 55.296 0l290.816-241.664c8.192-8.192 20.48-4.096 28.672 4.096l24.576 32.768c10.24 6.144 10.24 18.432 2.048 28.672zM43.008 247.296v0 0zM724.992 222.72l-286.72 237.568c-10.24 10.24-26.624 14.336-43.008 14.336s-30.72-4.096-43.008-14.336l-286.72-237.568-20.48 26.624 313.344 258.048c0 0 2.048 0 2.048 2.048 8.192 6.144 18.432 12.288 24.576 16.384 8.192 4.096 18.432 4.096 28.672 0 6.144-4.096 14.336-10.24 20.48-16.384l96.256-79.872c4.096-4.096 10.24-6.144 16.384-6.144 4.096 0 6.144 0 10.24 2.048 8.192 4.096 14.336 12.288 14.336 22.528v40.96h75.776v-143.36c0-8.192 4.096-14.336 8.192-18.432l92.16-75.776-22.528-28.672zM428.032 407.040c-16.384 12.288-40.96 12.288-59.392 0l-229.376-190.464c-4.096-4.096-10.24-8.192-14.336-16.384-4.096-4.096-4.096-8.192-4.096-16.384v-206.848c0-12.288 8.192-20.48 20.48-20.48h126.976c12.288 0 20.48 8.192 20.48 20.48v112.64c0 12.288 8.192 20.48 20.48 20.48h167.936c12.288 0 20.48-8.192 20.48-20.48v-112.64c0-12.288 8.192-20.48 20.48-20.48h124.928c12.288 0 20.48 8.192 20.48 20.48v206.848c0 12.288 0 16.384 0 20.48-4.096 4.096-8.192 8.192-12.288 12.288l-223.232 190.464zM638.976-18.944h-116.736v108.544c0 26.624-18.432 45.056-45.056 45.056h-167.936c-26.624 0-45.056-18.432-45.056-45.056v-108.544h-118.784c0 0 0 204.8 0 204.8s2.048 2.048 2.048 2.048c0 2.048 2.048 4.096 6.144 6.144 2.048 0 2.048 2.048 4.096 2.048l225.28 190.464c4.096 2.048 10.24 4.096 16.384 4.096s10.24-2.048 14.336-4.096l221.184-188.416 4.096-4.096v-212.992zM819.2 849.408c-49.152 0-86.016-36.864-86.016-86.016s36.864-86.016 86.016-86.016 86.016 36.864 86.016 86.016c0 49.152-38.912 86.016-86.016 86.016zM819.2 697.856c-36.864 0-65.536 28.672-65.536 65.536s28.672 65.536 65.536 65.536 65.536-28.672 65.536-65.536c0-36.864-28.672-65.536-65.536-65.536zM1003.52 722.432v81.92l-61.44 4.096c-4.096 12.288-12.288 24.576-20.48 36.864l24.576 53.248-69.632 40.96-36.864-49.152c-8.192 0-12.288 0-20.48 0s-16.384 0-20.48 0l-36.864 49.152-69.632-40.96 24.576-53.248c-8.192-12.288-16.384-24.576-20.48-36.864l-61.44-4.096v-81.92l61.44-4.096c4.096-12.288 12.288-24.576 20.48-36.864l-24.576-53.248 69.632-40.96 36.864 49.152c8.192 0 12.288 0 20.48 0s16.384 0 20.48 0l36.864-49.152 69.632 40.96-24.576 53.248c8.192 12.288 16.384 24.576 20.48 36.864l61.44 4.096zM921.6 724.48c-4.096-10.24-10.24-20.48-18.432-32.768-4.096-6.144-4.096-14.336-2.048-20.48l16.384-36.864-36.864-20.48-26.624 34.816c-4.096 6.144-10.24 8.192-16.384 8.192h-40.96c-6.144 0-12.288-2.048-16.384-8.192l-26.624-34.816-36.864 22.528 16.384 36.864c2.048 6.144 2.048 14.336-2.048 20.48-8.192 10.24-14.336 22.528-18.432 32.768-2.048 8.192-10.24 14.336-18.432 14.336h-38.912v45.056l40.96 2.048c8.192 0 16.384 6.144 18.432 14.336 4.096 10.24 10.24 20.48 18.432 32.768 4.096 6.144 4.096 14.336 2.048 20.48l-16.384 36.864 36.864 22.528 26.624-36.864c4.096-6.144 10.24-8.192 16.384-8.192h40.96c6.144 0 12.288 2.048 16.384 8.192l24.576 34.816 36.864-22.528-16.384-36.864c-2.048-6.144-2.048-14.336 2.048-20.48 8.192-12.288 14.336-22.528 18.432-32.768 2.048-8.192 10.24-14.336 18.432-14.336h43.008v-43.008l-43.008-2.048c-8.192-2.048-16.384-8.192-18.432-16.384z" />
<glyph unicode="&#xe92a;" glyph-name="feed-settings-f" data-tags="feed-settings-47-f" d="M768 265.728l-98.304 79.872v147.456c0 12.288-8.192 20.48-20.48 20.48h-83.968c-12.288 0-20.48-8.192-20.48-20.48v-47.104l-96.256 79.872c0 0-32.768 28.672-51.2 28.672-16.384 0-55.296-28.672-55.296-28.672l-315.392-260.096c-8.192-8.192-8.192-20.48-4.096-28.672l24.576-32.768c8.192-8.192 20.48-12.288 28.672-4.096l290.816 241.664c16.384 12.288 40.96 12.288 55.296 0l290.816-241.664c8.192-8.192 20.48-4.096 28.672 4.096l24.576 32.768c10.24 6.144 10.24 18.432 2.048 28.672zM661.504 204.288c-4.096 4.096-8.192 8.192-12.288 12.288l-223.232 190.464c-16.384 12.288-40.96 12.288-59.392 0l-229.376-190.464c-4.096-4.096-10.24-8.192-14.336-16.384-4.096-4.096-4.096-8.192-4.096-16.384v0-206.848c0-12.288 8.192-20.48 20.48-20.48h126.976c12.288 0 20.48 8.192 20.48 20.48v112.64c0 12.288 8.192 20.48 20.48 20.48h167.936c12.288 0 20.48-8.192 20.48-20.48v-112.64c0-12.288 8.192-20.48 20.48-20.48h124.928c12.288 0 20.48 8.192 20.48 20.48v206.848c0 12.288 0 16.384 0 20.48zM1001.472 722.432v81.92l-61.44 4.096c-4.096 12.288-12.288 24.576-20.48 36.864l24.576 53.248-69.632 40.96-36.864-49.152c-8.192 0-12.288 0-20.48 0s-16.384 0-20.48 0l-36.864 49.152-69.632-40.96 24.576-53.248c-8.192-12.288-16.384-24.576-20.48-36.864l-61.44-4.096v-81.92l61.44-4.096c4.096-12.288 12.288-24.576 20.48-36.864l-24.576-53.248 69.632-40.96 36.864 49.152c8.192 0 12.288 0 20.48 0s16.384 0 20.48 0l36.864-49.152 69.632 40.96-24.576 53.248c8.192 12.288 16.384 24.576 20.48 36.864l61.44 4.096zM817.152 697.856c-36.864 0-65.536 28.672-65.536 65.536s28.672 65.536 65.536 65.536 65.536-28.672 65.536-65.536-28.672-65.536-65.536-65.536z" />
<glyph unicode="&#xe92b;" glyph-name="feed-view-1" data-tags="feed-view-1" d="M735.232 572.928h-122.88c-12.288 0-20.48 8.192-20.48 20.48v122.88c0 12.288 8.192 20.48 20.48 20.48h122.88c12.288 0 20.48-8.192 20.48-20.48v-122.88c0-16.384-8.192-20.48-20.48-20.48zM245.76 429.568h-81.92c-24.576 0-40.96-20.48-40.96-40.96v-81.92c0-24.576 20.48-40.96 40.96-40.96h81.92c24.576 0 40.96 20.48 40.96 40.96v81.92c-2.048 20.48-20.48 40.96-40.96 40.96zM266.24 306.688c0-12.288-8.192-20.48-20.48-20.48h-81.92c-12.288 0-20.48 8.192-20.48 20.48v81.92c0 12.288 8.192 20.48 20.48 20.48h81.92c12.288 0 20.48-8.192 20.48-20.48v-81.92zM448.512 429.568h-81.92c-24.576 0-40.96-20.48-40.96-40.96v-81.92c0-24.576 20.48-40.96 40.96-40.96h81.92c24.576 0 40.96 20.48 40.96 40.96v81.92c0 20.48-20.48 40.96-40.96 40.96zM468.992 306.688c0-12.288-8.192-20.48-20.48-20.48h-81.92c-12.288 0-20.48 8.192-20.48 20.48v81.92c0 12.288 8.192 20.48 20.48 20.48h81.92c12.288 0 20.48-8.192 20.48-20.48v-81.92zM245.76 224.768h-81.92c-24.576 0-40.96-20.48-40.96-40.96v-81.92c0-24.576 20.48-40.96 40.96-40.96h81.92c24.576 0 40.96 20.48 40.96 40.96v81.92c-2.048 20.48-20.48 40.96-40.96 40.96zM266.24 103.936c0-12.288-8.192-20.48-20.48-20.48h-81.92c-12.288 0-20.48 8.192-20.48 20.48v81.92c0 12.288 8.192 20.48 20.48 20.48h81.92c12.288 0 20.48-8.192 20.48-20.48v-81.92zM448.512 224.768h-81.92c-24.576 0-40.96-20.48-40.96-40.96v-81.92c0-24.576 20.48-40.96 40.96-40.96h81.92c24.576 0 40.96 20.48 40.96 40.96v81.92c0 20.48-20.48 40.96-40.96 40.96zM468.992 103.936c0-12.288-8.192-20.48-20.48-20.48h-81.92c-12.288 0-20.48 8.192-20.48 20.48v81.92c0 12.288 8.192 20.48 20.48 20.48h81.92c12.288 0 20.48-8.192 20.48-20.48v-81.92zM884.736 939.52h-749.568c-61.44 0-114.688-49.152-114.688-114.688v-753.664c0-61.44 49.152-114.688 114.688-114.688h749.568c61.44 0 114.688 49.152 114.688 114.688v749.568c0 65.536-49.152 118.784-114.688 118.784zM974.848 71.168c0-49.152-40.96-90.112-90.112-90.112h-749.568c-49.152 0-90.112 40.96-90.112 90.112v753.664c0 49.152 40.96 90.112 90.112 90.112h749.568c51.2 0 90.112-40.96 90.112-94.208v-749.568zM851.968 95.744c-4.096 0-4.096 0-8.192 4.096l-684.032 679.936c-4.096 4.096-4.096 12.288 0 16.384s12.288 4.096 16.384 0l681.984-681.984c4.096-4.096 4.096-12.288 0-16.384-2.048-2.048-6.144-2.048-6.144-2.048z" />
<glyph unicode="&#xe92c;" glyph-name="feed-view-4" data-tags="feed-view-4" d="M243.712 290.304h-81.92c-12.288 0-20.48 8.192-20.48 20.48v81.92c0 12.288 8.192 20.48 20.48 20.48h81.92c12.288 0 20.48-8.192 20.48-20.48v-81.92c0-16.384-8.192-20.48-20.48-20.48zM446.464 290.304h-81.92c-12.288 0-20.48 8.192-20.48 20.48v81.92c0 12.288 8.192 20.48 20.48 20.48h81.92c12.288 0 20.48-8.192 20.48-20.48v-81.92c0-16.384-8.192-20.48-20.48-20.48zM243.712 85.504h-81.92c-12.288 0-20.48 8.192-20.48 20.48v81.92c0 12.288 8.192 20.48 20.48 20.48h81.92c12.288 0 20.48-8.192 20.48-20.48v-81.92c0-16.384-8.192-20.48-20.48-20.48zM446.464 85.504h-81.92c-12.288 0-20.48 8.192-20.48 20.48v81.92c0 12.288 8.192 20.48 20.48 20.48h81.92c12.288 0 20.48-8.192 20.48-20.48v-81.92c0-16.384-8.192-20.48-20.48-20.48zM880.64 939.52h-745.472c-61.44 0-114.688-49.152-114.688-118.784v-751.616c0-61.44 49.152-114.688 114.688-114.688h745.472c61.44 0 114.688 49.152 114.688 114.688v751.616c0 65.536-49.152 118.784-114.688 118.784zM970.752 69.12c0-49.152-40.96-90.112-90.112-90.112h-745.472c-49.152 0-90.112 40.96-90.112 90.112v751.616c0 53.248 38.912 94.208 90.112 94.208h745.472c51.2 0 90.112-40.96 90.112-94.208v-751.616zM849.92 97.792c-4.096 0-4.096 0-8.192 4.096l-684.032 679.936c-4.096 4.096-4.096 12.288 0 16.384s12.288 4.096 16.384 0l677.888-677.888c4.096-4.096 4.096-12.288 0-16.384 2.048-6.144-2.048-6.144-2.048-6.144zM710.656 736.768h-81.92c-24.576 0-40.96-20.48-40.96-40.96v-81.92c0-24.576 20.48-40.96 40.96-40.96h81.92c24.576 0 40.96 20.48 40.96 40.96v81.92c0 20.48-20.48 40.96-40.96 40.96zM731.136 613.888c0-12.288-8.192-20.48-20.48-20.48h-81.92c-12.288 0-20.48 8.192-20.48 20.48v81.92c0 12.288 8.192 20.48 20.48 20.48h81.92c12.288 0 20.48-8.192 20.48-20.48v-81.92z" />
<glyph unicode="&#xe92d;" glyph-name="find-by-location" data-tags="find-by-location" d="M716.8 734.72c0 114.688-90.112 204.8-204.8 204.8s-204.8-90.112-204.8-204.8c0-106.496 81.92-192.512 184.32-200.704v-557.056c0-12.288 8.192-20.48 20.48-20.48s20.48 8.192 20.48 20.48v557.056c102.4 8.192 184.32 94.208 184.32 200.704zM512 570.88v0 0c-90.112 0-163.84 73.728-163.84 163.84s73.728 163.84 163.84 163.84 163.84-73.728 163.84-163.84-73.728-163.84-163.84-163.84z" />
<glyph unicode="&#xe92e;" glyph-name="find-by-location-2" data-tags="find-by-location-2" d="M696.32 734.72c0 114.688-90.112 204.8-204.8 204.8s-204.8-90.112-204.8-204.8c0-102.4 69.632-180.224 163.84-200.704v-536.576c0-24.576 16.384-40.96 40.96-40.96s40.96 16.384 40.96 40.96v536.576c94.208 20.48 163.84 98.304 163.84 200.704zM491.52 570.88c-90.112 0-163.84 73.728-163.84 163.84s73.728 163.84 163.84 163.84 163.84-73.728 163.84-163.84-73.728-163.84-163.84-163.84z" />
<glyph unicode="&#xe92f;" glyph-name="gear" data-tags="gear" d="M507.904 656.896c-116.736 0-212.992-96.256-212.992-212.992s96.256-212.992 212.992-212.992 212.992 96.256 212.992 212.992c0 114.688-98.304 212.992-212.992 212.992zM507.904 255.488c-106.496 0-188.416 86.016-188.416 188.416 0 106.496 86.016 188.416 188.416 188.416s188.416-86.016 188.416-188.416-81.92-188.416-188.416-188.416zM1003.52 337.408v221.184l-161.792 16.384c-12.288 36.864-32.768 65.536-55.296 94.208l65.536 149.504-186.368 112.64-94.208-129.024c-20.48 4.096-36.864 4.096-59.392 4.096s-36.864 0-59.392-4.096l-94.208 129.024-188.416-110.592 65.536-149.504c-26.624-30.72-43.008-61.44-55.296-94.208l-159.744-16.384v-223.232l161.792-16.384c12.288-36.864 32.768-65.536 55.296-94.208l-65.536-149.504 188.416-110.592 94.208 129.024c20.48-4.096 36.864-4.096 59.392-4.096s36.864 0 59.392 4.096l94.208-131.072 188.416 110.592-65.536 149.504c24.576 28.672 43.008 61.44 55.296 94.208l157.696 18.432zM823.296 327.168c-12.288-32.768-28.672-61.44-51.2-86.016-6.144-8.192-8.192-16.384-4.096-26.624l57.344-129.024-151.552-88.064-81.92 112.64c-4.096 6.144-12.288 10.24-20.48 10.24-2.048 0-2.048 0-4.096 0-20.48-4.096-32.768-4.096-55.296-4.096s-36.864 0-55.296 4.096c-2.048 0-4.096 0-4.096 0-8.192 0-14.336-4.096-20.48-10.24l-81.92-110.592-149.504 88.064 57.344 129.024c4.096 8.192 2.048 18.432-4.096 24.576-20.48 24.576-38.912 53.248-51.2 86.016-2.048 8.192-10.24 16.384-20.48 16.384l-139.264 14.336v178.176l137.216 14.336c10.24 0 16.384 6.144 20.48 16.384 12.288 34.816 28.672 61.44 51.2 86.016 6.144 6.144 8.192 16.384 4.096 26.624l-55.296 131.072 151.552 88.064 81.92-110.592c4.096-6.144 12.288-10.24 20.48-10.24 2.048 0 2.048 0 4.096 0 20.48 4.096 32.768 4.096 55.296 4.096s36.864 0 55.296-4.096c2.048 0 4.096 0 4.096 0 8.192 0 14.336 4.096 20.48 10.24l81.92 110.592 149.504-90.112-57.344-129.024c-4.096-8.192-2.048-18.432 4.096-24.576 20.48-24.576 38.912-53.248 51.2-86.016 2.048-8.192 10.24-16.384 20.48-16.384l139.264-14.336v-176.128l-135.168-16.384c-14.336-4.096-22.528-10.24-24.576-18.432z" />
<glyph unicode="&#xe930;" glyph-name="gear-f" data-tags="gear-f" d="M1003.52 325.12v221.184l-161.792 16.384c-12.288 36.864-32.768 65.536-55.296 94.208l65.536 149.504-186.368 112.64-94.208-129.024c-20.48 4.096-36.864 4.096-59.392 4.096s-36.864 0-59.392-4.096l-94.208 129.024-188.416-110.592 65.536-149.504c-26.624-30.72-43.008-61.44-55.296-94.208l-159.744-16.384v-223.232l161.792-16.384c12.288-36.864 32.768-65.536 55.296-94.208l-65.536-149.504 188.416-110.592 94.208 129.024c20.48-4.096 36.864-4.096 59.392-4.096s36.864 0 59.392 4.096l94.208-131.072 188.416 110.592-65.536 149.504c24.576 28.672 43.008 61.44 55.296 94.208l157.696 18.432zM507.904 243.2c-106.496 0-188.416 86.016-188.416 188.416 0 106.496 86.016 188.416 188.416 188.416s188.416-86.016 188.416-188.416-81.92-188.416-188.416-188.416z" />
<glyph unicode="&#xe931;" glyph-name="gears" data-tags="gears" d="M337.92 603.648c-90.112 0-157.696-67.584-157.696-157.696 0-86.016 69.632-157.696 157.696-157.696 90.112 0 157.696 67.584 157.696 157.696 0 88.064-71.68 157.696-157.696 157.696zM337.92 314.88c-71.68 0-133.12 57.344-133.12 133.12s57.344 133.12 133.12 133.12c71.68 0 133.12-57.344 133.12-133.12s-57.344-133.12-133.12-133.12zM657.408 384.512v124.928l-79.872 8.192c-4.096 14.336-12.288 30.72-18.432 45.056l49.152 65.536-88.064 88.064-65.536-49.152c-14.336 8.192-30.72 14.336-45.056 18.432l-8.192 79.872h-126.976l-8.192-79.872c-14.336-4.096-30.72-12.288-45.056-18.432l-65.536 49.152-88.064-88.064 49.152-65.536c-8.192-14.336-14.336-30.72-18.432-45.056l-75.776-8.192v-126.976l79.872-6.144c4.096-14.336 12.288-30.72 18.432-45.056l-49.152-65.536 88.064-88.064 65.536 49.152c14.336-8.192 30.72-14.336 45.056-18.432l8.192-79.872h126.976l8.192 79.872c14.336 4.096 30.72 12.288 45.056 18.432l65.536-49.152 88.064 88.064-49.152 65.536c8.192 14.336 14.336 30.72 18.432 45.056l75.776 8.192zM555.008 382.464c-4.096-14.336-10.24-28.672-16.384-38.912-4.096-8.192-4.096-18.432 2.048-26.624l36.864-47.104-57.344-57.344-49.152 34.816c-4.096 4.096-10.24 4.096-14.336 4.096s-6.144 0-10.24-2.048c-4.096-2.048-8.192-4.096-12.288-6.144-10.24-4.096-20.48-10.24-30.72-12.288s-16.384-10.24-18.432-20.48l-6.144-57.344h-81.92l-6.144 57.344c-2.048 10.24-8.192 18.432-18.432 20.48-14.336 4.096-28.672 10.24-38.912 16.384-4.096 2.048-8.192 4.096-12.288 4.096-6.144 0-10.24-2.048-14.336-4.096l-47.104-36.864-57.344 57.344 36.864 47.104c6.144 6.144 6.144 16.384 2.048 24.576-2.048 4.096-4.096 8.192-6.144 12.288-4.096 10.24-10.24 20.48-12.288 30.72s-10.24 16.384-20.48 18.432l-57.344 6.144v81.92l57.344 6.144c10.24 2.048 18.432 8.192 20.48 18.432 4.096 14.336 10.24 28.672 16.384 38.912 4.096 8.192 4.096 18.432-2.048 26.624l-36.864 47.104 57.344 57.344 47.104-36.864c4.096-4.096 10.24-4.096 14.336-4.096s6.144 0 10.24 2.048c4.096 2.048 8.192 4.096 12.288 6.144 10.24 4.096 20.48 10.24 30.72 12.288s16.384 10.24 18.432 20.48l6.144 57.344h81.92l6.144-57.344c2.048-10.24 8.192-18.432 18.432-20.48 14.336-4.096 28.672-10.24 38.912-16.384 4.096-2.048 8.192-4.096 12.288-4.096 6.144 0 10.24 2.048 14.336 4.096l47.104 36.864 57.344-57.344-36.864-47.104c-6.144-6.144-6.144-16.384-2.048-24.576 2.048-4.096 4.096-8.192 6.144-12.288 4.096-10.24 10.24-20.48 12.288-30.72s10.24-16.384 20.48-18.432l57.344-6.144v-81.92l-57.344-6.144c-8.192 0-16.384-6.144-18.432-16.384zM929.792 794.112c-6.144 14.336-12.288 28.672-22.528 40.96l28.672 57.344-77.824 45.056-34.816-53.248c-8.192 2.048-14.336 2.048-22.528 2.048s-16.384 0-22.528-2.048l-34.816 53.248-77.824-45.056 30.72-57.344c-10.24-12.288-18.432-24.576-22.528-40.96l-63.488-4.096v-88.064l63.488-4.096c6.144-14.336 12.288-28.672 22.528-40.96l-28.672-57.344 77.824-45.056 34.816 53.248c8.192-2.048 14.336-2.048 22.528-2.048s16.384 0 22.528 2.048l34.816-53.248 77.824 45.056-28.672 57.344c10.24 12.288 18.432 24.576 22.528 40.96l63.488 4.096v88.064l-65.536 4.096zM972.8 722.432l-43.008-2.048c-8.192 0-16.384-6.144-18.432-16.384-4.096-12.288-10.24-22.528-18.432-32.768-6.144-6.144-6.144-14.336-2.048-22.528l20.48-38.912-43.008-24.576-24.576 36.864c-4.096 6.144-10.24 10.24-16.384 10.24-2.048 0-4.096 0-6.144-2.048-2.048 0-10.24 0-16.384 0-8.192 0-12.288 0-18.432 2.048-2.048 0-4.096 0-4.096 0-6.144 0-12.288-4.096-16.384-10.24l-24.576-36.864-43.008 24.576 20.48 38.912c4.096 8.192 2.048 16.384-2.048 22.528-8.192 10.24-14.336 22.528-18.432 34.816-2.048 6.144-10.24 12.288-18.432 12.288l-43.008 2.048v51.2l38.912 2.048c8.192 0 16.384 6.144 18.432 16.384 4.096 12.288 10.24 22.528 18.432 32.768 4.096 6.144 6.144 14.336 2.048 22.528l-20.48 38.912 43.008 24.576 24.576-36.864c4.096-6.144 10.24-10.24 16.384-10.24 2.048 0 4.096 0 6.144 2.048 2.048 0 10.24 0 16.384 0 8.192 0 12.288 0 16.384-2.048 2.048 0 4.096 0 4.096 0 6.144 0 12.288 4.096 16.384 10.24l24.576 36.864 43.008-24.576-20.48-38.912c-4.096-8.192-2.048-16.384 2.048-22.528 8.192-10.24 14.336-22.528 18.432-34.816 8.192-8.192 16.384-12.288 24.576-14.336l43.008-2.048v-49.152zM802.816 837.12c-51.2 0-90.112-38.912-90.112-90.112s38.912-90.112 90.112-90.112 90.112 38.912 90.112 90.112-40.96 90.112-90.112 90.112zM802.816 679.424c-38.912 0-69.632 30.72-69.632 69.632s30.72 67.584 69.632 67.584 69.632-30.72 69.632-69.632-32.768-67.584-69.632-67.584zM907.264 232.96l28.672 57.344-77.824 45.056-34.816-53.248c-6.144 2.048-12.288 2.048-20.48 2.048s-16.384 0-22.528-2.048l-34.816 53.248-77.824-45.056 28.672-57.344c-10.24-12.288-18.432-24.576-22.528-40.96l-63.488-4.096v-88.064l63.488-4.096c6.144-14.336 12.288-28.672 22.528-40.96l-28.672-57.344 77.824-45.056 34.816 53.248c8.192-2.048 14.336-2.048 22.528-2.048s16.384 0 22.528 2.048l34.816-53.248 77.824 45.056-28.672 57.344c10.24 12.288 18.432 24.576 22.528 40.96l63.488 4.096v88.064l-63.488 4.096c-8.192 14.336-14.336 28.672-24.576 40.96zM972.8 120.32l-43.008-2.048c-8.192 0-16.384-6.144-18.432-16.384-4.096-12.288-10.24-22.528-18.432-32.768-6.144-6.144-6.144-14.336-2.048-22.528l20.48-38.912-43.008-24.576-26.624 34.816c-4.096 6.144-10.24 10.24-16.384 10.24-2.048 0-4.096 0-6.144-2.048-2.048 0-10.24 0-16.384 0-8.192 0-12.288 0-18.432 2.048-2.048 0-4.096 0-4.096 0-6.144 0-12.288-4.096-16.384-10.24l-24.576-36.864-43.008 24.576 20.48 38.912c4.096 8.192 2.048 16.384-2.048 22.528-8.192 10.24-14.336 22.528-18.432 34.816-2.048 6.144-10.24 12.288-18.432 12.288l-47.104 6.144v49.152l43.008 2.048c8.192 0 16.384 6.144 18.432 16.384 4.096 12.288 10.24 22.528 18.432 32.768 6.144 6.144 6.144 14.336 2.048 22.528l-20.48 38.912 43.008 24.576 24.576-36.864c4.096-6.144 10.24-10.24 16.384-10.24 2.048 0 4.096 0 6.144 2.048 2.048 0 10.24 0 16.384 0 8.192 0 12.288 0 18.432-2.048 2.048 0 4.096 0 4.096 0 6.144 0 12.288 4.096 16.384 10.24l24.576 36.864 43.008-24.576-20.48-38.912c-4.096-8.192-2.048-16.384 2.048-22.528 8.192-10.24 14.336-22.528 18.432-34.816 2.048-6.144 10.24-12.288 18.432-12.288l43.008-2.048v-51.2zM802.816 235.008c-51.2 0-90.112-38.912-90.112-90.112s38.912-90.112 90.112-90.112 90.112 38.912 90.112 90.112-40.96 90.112-90.112 90.112zM802.816 75.264c-38.912 0-69.632 30.72-69.632 69.632s30.72 69.632 69.632 69.632 69.632-30.72 69.632-69.632-32.768-69.632-69.632-69.632z" />
<glyph unicode="&#xe932;" glyph-name="gears-f" data-tags="gears-f" d="M524.288 179.712l88.064 88.064-49.152 65.536c8.192 14.336 14.336 30.72 18.432 45.056l79.872 8.192v126.976l-79.872 8.192c-4.096 14.336-12.288 30.72-18.432 45.056l49.152 65.536-88.064 88.064-65.536-49.152c-14.336 8.192-30.72 14.336-45.056 18.432l-8.192 79.872h-126.976l-8.192-79.872c-14.336-4.096-30.72-12.288-45.056-18.432l-61.44 47.104-88.064-88.064 49.152-65.536c-8.192-14.336-14.336-30.72-18.432-45.056l-79.872-8.192v-124.928l79.872-8.192c4.096-14.336 12.288-30.72 18.432-45.056l-49.152-65.536 88.064-88.064 65.536 49.152c14.336-8.192 30.72-14.336 45.056-18.432l8.192-79.872h126.976l8.192 79.872c14.336 4.096 30.72 12.288 45.056 18.432l61.44-49.152zM342.016 316.928c-71.68 0-133.12 57.344-133.12 133.12s57.344 133.12 133.12 133.12c71.68 0 133.12-57.344 133.12-133.12s-57.344-133.12-133.12-133.12zM997.376 706.048v86.016l-63.488 4.096c-6.144 14.336-12.288 28.672-22.528 40.96l28.672 57.344-77.824 45.056-34.816-53.248c-8.192 2.048-14.336 2.048-22.528 2.048s-16.384 0-22.528-2.048l-32.768 53.248-77.824-45.056 28.672-57.344c-10.24-12.288-18.432-24.576-22.528-40.96l-63.488-4.096v-88.064l63.488-4.096c6.144-14.336 12.288-28.672 22.528-40.96l-28.672-57.344 77.824-45.056 34.816 53.248c8.192-2.048 14.336-2.048 22.528-2.048s16.384 0 22.528 2.048l34.816-53.248 77.824 45.056-28.672 57.344c10.24 12.288 18.432 24.576 22.528 40.96l61.44 6.144zM806.912 681.472c-38.912 0-69.632 30.72-69.632 69.632s30.72 69.632 69.632 69.632 69.632-30.72 69.632-69.632-32.768-69.632-69.632-69.632zM997.376 103.936v88.064l-63.488 4.096c-6.144 14.336-12.288 28.672-22.528 40.96l28.672 57.344-77.824 45.056-32.768-55.296c-8.192 2.048-14.336 2.048-22.528 2.048s-16.384 0-22.528-2.048l-34.816 53.248-77.824-45.056 28.672-57.344c-10.24-12.288-18.432-24.576-22.528-40.96l-63.488-4.096v-88.064l63.488-4.096c6.144-14.336 12.288-28.672 22.528-40.96l-28.672-57.344 77.824-45.056 34.816 53.248c8.192-2.048 14.336-2.048 22.528-2.048s16.384 0 22.528 2.048l34.816-53.248 77.824 45.056-30.72 59.392c10.24 12.288 18.432 24.576 22.528 40.96l63.488 4.096zM806.912 79.36c-38.912 0-69.632 30.72-69.632 69.632s30.72 69.632 69.632 69.632 69.632-30.72 69.632-69.632-32.768-69.632-69.632-69.632z" />
<glyph unicode="&#xe933;" glyph-name="gift" data-tags="gift-2" d="M919.552 593.408h-219.136c18.432 10.24 73.728 14.336 102.4 43.008 57.344 57.344 57.344 149.504 0 206.848-28.672 28.672-65.536 40.96-102.4 40.96s-75.776-14.336-102.4-43.008c-24.576-24.576-65.536-75.776-94.208-135.168-28.672 55.296-69.632 108.544-94.208 135.168-28.672 28.672-65.536 43.008-102.4 43.008s-75.776-10.24-102.4-40.96c-57.344-57.344-57.344-149.504 0-206.848 28.672-28.672 83.968-32.768 102.4-43.008h-215.040c-40.96 0-73.728-32.768-73.728-73.728v-108.544c0-40.96 32.768-73.728 73.728-73.728v-253.952c0-40.96 32.768-73.728 73.728-73.728h688.128c40.96 0 73.728 32.768 73.728 73.728v256c40.96 0 73.728 32.768 73.728 73.728v108.544c-8.192 34.816-40.96 71.68-81.92 71.68zM974.848 413.184c0-26.624-22.528-49.152-49.152-49.152-14.336 0-24.576-10.24-24.576-24.576v-256c0-26.624-22.528-49.152-49.152-49.152h-686.080c-26.624 0-49.152 22.528-49.152 49.152v253.952c0 14.336-10.24 24.576-24.576 24.576-26.624 0-49.152 22.528-49.152 49.152v108.544c0 26.624 22.528 49.152 49.152 49.152h215.040c10.24 0 20.48 8.192 24.576 18.432 2.048 10.24-2.048 22.528-12.288 28.672-8.192 4.096-20.48 8.192-34.816 12.288-22.528 6.144-49.152 12.288-63.488 26.624-22.528 22.528-36.864 53.248-36.864 83.968s12.288 63.488 34.816 86.016c26.624 28.672 61.44 34.816 88.064 34.816 30.72 0 61.44-12.288 86.016-34.816 18.432-20.48 59.392-71.68 90.112-129.024 4.096-8.192 12.288-12.288 22.528-12.288 0 0 0 0 0 0 10.24 0 18.432 6.144 22.528 14.336 24.576 57.344 65.536 106.496 86.016 126.976 20.48 22.528 53.248 34.816 86.016 34.816 22.528 0 57.344-6.144 86.016-32.768 22.528-22.528 34.816-53.248 34.816-86.016s-12.288-63.488-34.816-86.016c-14.336-14.336-40.96-22.528-63.488-26.624-14.336-4.096-24.576-6.144-34.816-12.288s-14.336-16.384-12.288-28.672c2.048-10.24 12.288-18.432 24.576-18.432h219.136c26.624 0 51.2-24.576 57.344-51.2v-104.448zM583.68 566.784h-145.408c-26.624 0-45.056-18.432-45.056-45.056v-401.408c0-26.624 18.432-45.056 45.056-45.056h145.408c26.624 0 45.056 18.432 45.056 45.056v401.408c0 24.576-20.48 45.056-45.056 45.056zM604.16 120.32c0-12.288-8.192-20.48-20.48-20.48h-145.408c-12.288 0-20.48 8.192-20.48 20.48v401.408c0 12.288 8.192 20.48 20.48 20.48h145.408c10.24 0 20.48-8.192 20.48-20.48v-401.408zM444.416 634.368c0 2.048 2.048 2.048 2.048 4.096 8.192 14.336 14.336 26.624-71.68 165.888l-2.048 4.096c-10.24 14.336-28.672 22.528-55.296 22.528-30.72 0-57.344-12.288-73.728-30.72-20.48-24.576-30.72-61.44-22.528-90.112 4.096-18.432 16.384-32.768 32.768-38.912l61.44-20.48 65.536-24.576c2.048 0 14.336-6.144 28.672-6.144 18.432 0 28.672 8.192 34.816 14.336zM387.072 648.704l-65.536 24.576c0 0-30.72 10.24-61.44 20.48-28.672 10.24-24.576 61.44 0 90.112s79.872 26.624 90.112 10.24c10.24-16.384 81.92-129.024 73.728-143.36-10.24-12.288-36.864-2.048-36.864-2.048zM757.76 669.184c16.384 6.144 28.672 20.48 32.768 38.912 8.192 28.672-2.048 65.536-22.528 90.112-16.384 18.432-45.056 30.72-73.728 30.72-26.624 0-47.104-8.192-55.296-22.528l-4.096-4.096c-88.064-139.264-79.872-151.552-71.68-165.888 2.048-2.048 2.048-4.096 4.096-6.144 6.144-6.144 14.336-12.288 30.72-12.288 14.336 0 28.672 6.144 30.72 6.144l65.536 22.528c0 2.048 32.768 12.288 63.488 22.528zM620.544 648.704c0 0-26.624-10.24-36.864 0-8.192 14.336 63.488 126.976 73.728 143.36s65.536 18.432 90.112-10.24 28.672-79.872 0-90.112-61.44-20.48-61.44-20.48l-65.536-22.528z" />
<glyph unicode="&#xe934;" glyph-name="gift-f" data-tags="gift-f" d="M921.6 593.408h-219.136c18.432 10.24 73.728 14.336 102.4 43.008 57.344 57.344 57.344 149.504 0 206.848-28.672 28.672-65.536 40.96-102.4 40.96s-75.776-14.336-102.4-43.008c-24.576-24.576-65.536-75.776-94.208-135.168-28.672 55.296-69.632 108.544-94.208 135.168-28.672 28.672-65.536 43.008-102.4 43.008s-75.776-10.24-102.4-40.96c-57.344-57.344-57.344-149.504 0-206.848 28.672-28.672 83.968-32.768 102.4-43.008h-215.040c-40.96 0-73.728-32.768-73.728-73.728v-108.544c0-40.96 32.768-73.728 73.728-73.728v-253.952c0-40.96 32.768-73.728 73.728-73.728h688.128c40.96 0 73.728 32.768 73.728 73.728v256c40.96 0 73.728 32.768 73.728 73.728v108.544c-8.192 34.816-40.96 71.68-81.92 71.68zM393.216 652.8l-65.536 24.576c0 0-30.72 10.24-61.44 20.48-28.672 10.24-24.576 61.44 0 90.112s79.872 26.624 90.112 10.24c10.24-16.384 81.92-129.024 73.728-143.36-10.24-12.288-36.864-2.048-36.864-2.048zM604.16 120.32c0-12.288-8.192-20.48-20.48-20.48h-145.408c-12.288 0-20.48 8.192-20.48 20.48v401.408c0 12.288 8.192 20.48 20.48 20.48h145.408c10.24 0 20.48-8.192 20.48-20.48v-401.408zM630.784 652.8c0 0-26.624-10.24-36.864 0-8.192 14.336 63.488 126.976 73.728 143.36s65.536 18.432 90.112-10.24c24.576-28.672 28.672-79.872 0-90.112s-61.44-20.48-61.44-20.48l-65.536-22.528z" />
<glyph unicode="&#xe935;" glyph-name="group-ic" data-tags="group-ic" d="M991.232 579.072c-8.192 28.672-28.672 47.104-55.296 47.104h-77.824c47.104 26.624 73.728 73.728 73.728 129.024 0 81.92-65.536 147.456-147.456 147.456-57.344 0-108.544-32.768-133.12-83.968-12.288 69.632-73.728 120.832-143.36 120.832-65.536 0-124.928-45.056-143.36-110.592-26.624 45.056-75.776 73.728-126.976 73.728-81.92 0-147.456-65.536-147.456-147.456 0-53.248 28.672-102.4 73.728-129.024h-77.824c-30.72 0-55.296-24.576-55.296-55.296v-303.104c0-30.72 24.576-55.296 55.296-55.296 2.048 0 4.096-2.048 4.096-4.096v-194.56c0-30.72 24.576-55.296 55.296-55.296h190.464c20.48 0 32.768 10.24 40.96 22.528 10.24-16.384 26.624-24.576 45.056-24.576h186.368c16.384 0 32.768 8.192 43.008 20.48 8.192-12.288 20.48-24.576 43.008-24.576h186.368c30.72 0 55.296 24.576 55.296 55.296v194.56c0 2.048 2.048 4.096 4.096 4.096 30.72 0 55.296 24.576 55.296 55.296v311.296c-2.048 2.048-2.048 4.096-4.096 6.144zM786.432 878.080c67.584 0 122.88-55.296 122.88-122.88s-55.296-122.88-122.88-122.88c-67.584 0-122.88 55.296-122.88 122.88 0 69.632 55.296 122.88 122.88 122.88zM667.648 665.088c-2.048 0-4.096 0-4.096 0h-77.824c24.576 14.336 43.008 36.864 55.296 61.44 4.096-22.528 12.288-43.008 26.624-61.44zM507.904 914.944c67.584 0 122.88-55.296 122.88-122.88s-55.296-122.88-122.88-122.88c-67.584 0-122.88 55.296-122.88 122.88s55.296 122.88 122.88 122.88zM378.88 716.288c12.288-20.48 30.72-38.912 51.2-51.2h-67.584c-2.048 0-6.144 0-10.24 0 14.336 14.336 22.528 32.768 26.624 51.2zM112.64 755.2c0 67.584 55.296 122.88 122.88 122.88s122.88-55.296 122.88-122.88c0-67.584-55.296-122.88-122.88-122.88s-122.88 55.296-122.88 122.88zM333.824-14.848h-67.584c-16.384 0-40.96 0-59.392 0h-63.488c-16.384 0-28.672 12.288-28.672 28.672v194.56c0 16.384-14.336 28.672-28.672 28.672s-28.672 12.288-28.672 28.672v307.2c0 16.384 12.288 28.672 28.672 28.672h212.992v-296.96c0-32.768 24.576-59.392 59.392-61.44v-223.232c0-6.144 4.096-10.24 4.096-18.432-12.288-8.192-16.384-16.384-28.672-16.384zM636.928 247.296v-233.472c0-16.384-12.288-28.672-28.672-28.672h-63.488c-16.384 0-40.96 0-59.392 0h-63.488c-16.384 0-28.672 12.288-28.672 28.672v231.424c0 16.384-14.336 28.672-28.672 28.672s-28.672 12.288-28.672 28.672v309.248c0 16.384 12.288 28.672 28.672 28.672h301.056c10.24 0 24.576-14.336 32.768-32.768v-303.104c0-16.384-12.288-28.672-28.672-28.672-18.432 0-32.768-12.288-32.768-28.672zM968.704 263.68c0-16.384-12.288-28.672-28.672-28.672s-28.672-12.288-28.672-28.672v-194.56c0-16.384-12.288-28.672-28.672-28.672h-63.488c-16.384 0-40.96 0-59.392 0h-63.488c-12.288 0-18.432 6.144-24.576 18.432 4.096 4.096 4.096 10.24 4.096 18.432v223.232c32.768 4.096 59.392 28.672 59.392 61.44v296.96h206.848c18.432 0 26.624-16.384 30.72-28.672v-309.248z" />
<glyph unicode="&#xe936;" glyph-name="group-ic-f" data-tags="group-ic-f" d="M342.016 771.584c0-71.258-57.766-129.024-129.024-129.024s-129.024 57.766-129.024 129.024c0 71.258 57.766 129.024 129.024 129.024s129.024-57.766 129.024-129.024zM919.552 771.584c0-71.258-57.766-129.024-129.024-129.024s-129.024 57.766-129.024 129.024c0 71.258 57.766 129.024 129.024 129.024s129.024-57.766 129.024-129.024zM337.92 232.96c-34.816 4.096-61.44 30.72-61.44 65.536v311.296h-223.232c-18.432 0-30.72-14.336-30.72-30.72v-319.488c0-18.432 14.336-30.72 30.72-30.72s30.72-14.336 30.72-30.72v-204.8c0-18.432 14.336-30.72 30.72-30.72h67.584c18.432 0 45.056 0 61.44 0h71.68c12.288 0 18.432 8.192 26.624 18.432 0 8.192-4.096 12.288-4.096 18.432v233.472zM950.272 609.792h-217.088v-311.296c0-34.816-26.624-61.44-61.44-65.536v-239.616c0-8.192 0-14.336-4.096-18.432 8.192-12.288 14.336-18.432 26.624-18.432h67.584c18.432 0 45.056 0 61.44 0h67.584c18.432 0 30.72 14.336 30.72 30.72v204.8c0 18.432 14.336 30.72 30.72 30.72 18.432 0 30.72 14.336 30.72 30.72v325.632c-4.096 14.336-14.336 30.72-32.768 30.72zM661.504 650.752h-315.392c-18.432 0-30.72-14.336-30.72-30.72v-323.584c0-18.432 14.336-30.72 30.72-30.72s30.72-14.336 30.72-30.72v-243.712c0-18.432 14.336-30.72 30.72-30.72h67.584c18.432 0 45.056 0 61.44 0h67.584c18.432 0 30.72 14.336 30.72 30.72v245.76c0 18.432 14.336 30.72 30.72 30.72 18.432 0 30.72 14.336 30.72 30.72v317.44c-8.192 20.48-24.576 34.816-34.816 34.816zM626.688 810.496c0-71.258-57.766-129.024-129.024-129.024s-129.024 57.766-129.024 129.024c0 71.258 57.766 129.024 129.024 129.024s129.024-57.766 129.024-129.024z" />
<glyph unicode="&#xe937;" glyph-name="groups" data-tags="groups" d="M239.616 5.632c-36.864 0-67.584 30.72-67.584 67.584v733.184c0 36.864 30.72 67.584 67.584 67.584h67.584v-24.576h-67.584c-26.624 0-43.008-16.384-43.008-43.008v-731.136c0-24.576 14.336-40.96 36.864-43.008v0l6.144-2.048h67.584v-24.576h-67.584zM92.16 5.632c-36.864 0-67.584 30.72-67.584 67.584v733.184c0 36.864 30.72 67.584 67.584 67.584h67.584v-24.576h-67.584c-26.624 0-43.008-16.384-43.008-43.008v-731.136c0-24.576 14.336-40.96 36.864-43.008v0l6.144-2.048h67.584v-24.576h-67.584zM397.312 5.632c-36.864 0-67.584 30.72-67.584 67.584v733.184c0 36.864 30.72 67.584 67.584 67.584h512c36.864 0 67.584-30.72 67.584-67.584v-323.584h-22.528v323.584c0 26.624-16.384 43.008-43.008 43.008h-514.048c-26.624 0-43.008-16.384-43.008-43.008v-731.136c0-24.576 14.336-40.96 36.864-43.008v0l6.144-2.048h116.736v-24.576h-116.736zM858.112 525.824c0-59.947-48.597-108.544-108.544-108.544s-108.544 48.597-108.544 108.544c0 59.947 48.597 108.544 108.544 108.544s108.544-48.597 108.544-108.544zM917.504 394.752h-342.016c-40.96 0-90.112-40.96-90.112-81.92v-215.040c0-20.48 16.384-36.864 36.864-36.864h22.528c20.48 0 36.864 16.384 36.864 36.864v163.84c0 6.144 6.144 10.24 10.24 10.24h14.336c6.144 0 10.24-6.144 10.24-10.24v-256h258.048v256c0 6.144 6.144 10.24 10.24 10.24h16.384c6.144 0 10.24-6.144 10.24-10.24v-163.84c0-20.48 16.384-36.864 36.864-36.864h22.528c20.48 0 36.864 16.384 36.864 36.864v219.136c-2.048 40.96-49.152 77.824-90.112 77.824z" />
<glyph unicode="&#xe938;" glyph-name="plus-guy-f" data-tags="plus-guy-f" d="M890.88 921.088h-757.76c-51.2 0-94.208-43.008-94.208-94.208v-757.76c0-51.2 43.008-94.208 94.208-94.208h757.76c51.2 0 94.208 43.008 94.208 94.208v757.76c0 51.2-43.008 94.208-94.208 94.208zM434.176 818.688c77.824 0 141.312-63.488 141.312-141.312s-63.488-141.312-141.312-141.312-141.312 63.488-141.312 141.312 63.488 141.312 141.312 141.312zM772.096 124.416c0-26.624-20.48-47.104-47.104-47.104h-28.672c-26.624 0-47.104 20.48-47.104 47.104v212.992c0 6.144-6.144 14.336-14.336 14.336h-18.432c-6.144 0-14.336-6.144-14.336-14.336v-303.104h-335.872v303.104c0 6.144-6.144 14.336-14.336 14.336h-18.432c-6.144 0-14.336-6.144-14.336-14.336v-212.992c0-26.624-20.48-47.104-47.104-47.104h-26.624c-26.624 0-47.104 20.48-47.104 47.104v278.528c0 55.296 61.44 106.496 116.736 106.496h444.416c55.296 0 116.736-47.104 116.736-102.4l-4.096-282.624zM923.648 714.24c0-10.24-8.192-18.432-18.432-18.432h-96.256v-96.256c0-10.24-8.192-18.432-18.432-18.432h-14.336c-10.24 0-18.432 8.192-18.432 18.432v96.256h-96.256c-10.24 0-18.432 8.192-18.432 18.432v14.336c0 10.24 8.192 18.432 18.432 18.432h96.256v96.256c0 10.24 8.192 18.432 18.432 18.432h14.336c10.24 0 18.432-8.192 18.432-18.432v-96.256h96.256c10.24 0 18.432-8.192 18.432-18.432v-14.336z" />
<glyph unicode="&#xe939;" glyph-name="groups-f" data-tags="groups-f" d="M153.6 835.072c0 18.432 6.144 34.816 18.432 47.104h-106.496c-24.576 0-45.056-20.48-45.056-47.104v-798.72c0-24.576 20.48-45.056 45.056-45.056h104.448c-10.24 12.288-18.432 28.672-18.432 47.104v796.672zM958.464 882.176h-559.104c-28.672 0-47.104-18.432-47.104-47.104v-796.672c0-49.152 47.104-49.152 47.104-49.152h174.080v266.24c0 4.096-4.096 10.24-10.24 10.24h-14.336c-4.096 0-10.24-4.096-10.24-10.24v-167.936c0-20.48-16.384-38.912-38.912-38.912h-22.528c-20.48 0-38.912 16.384-38.912 38.912v219.136c0 43.008 51.2 83.968 92.16 83.968h350.208c43.008 0 90.112-38.912 92.16-79.872v-225.28c0-20.48-16.384-38.912-38.912-38.912h-22.528c-20.48 0-38.912 16.384-38.912 38.912v167.936c0 4.096-4.096 10.24-10.24 10.24h-16.384c-4.096 0-10.24-4.096-10.24-10.24v-264.192h118.784c24.576 0 45.056 20.48 45.056 45.056v798.72c4.096 28.672-16.384 49.152-40.96 49.152zM710.656 415.232c-61.44 0-112.64 49.152-112.64 112.64s49.152 112.64 112.64 112.64c61.44 0 112.64-49.152 112.64-112.64s-51.2-112.64-112.64-112.64zM344.064 882.176h-116.736c-28.672 0-47.104-18.432-47.104-47.104v-796.672c0-47.104 47.104-49.152 47.104-49.152h116.736c-10.24 12.288-18.432 28.672-18.432 47.104v798.72c0 18.432 6.144 34.816 18.432 47.104z" />
<glyph unicode="&#xe93a;" glyph-name="heart" data-tags="heart" d="M894.976 826.88c-131.072 81.92-278.528 28.672-380.928-69.632-53.248 45.056-108.544 92.16-176.128 106.496-79.872 16.384-172.032-6.144-235.52-57.344-122.88-102.4-92.16-274.432-6.144-391.168 34.816-45.056 77.824-83.968 118.784-122.88 59.392-57.344 118.784-112.64 180.224-172.032 20.48-20.48 45.056-43.008 67.584-63.488 14.336-14.336 28.672-30.72 53.248-30.72s43.008 20.48 57.344 38.912c24.576 24.576 53.248 53.248 77.824 77.824 57.344 57.344 116.736 112.64 172.032 165.888 49.152 49.152 102.4 94.208 137.216 155.648 71.68 114.688 57.344 284.672-65.536 362.496zM940.032 478.72c-26.624-47.104-65.536-83.968-104.448-122.88-10.24-10.24-18.432-18.432-28.672-28.672-16.384-16.384-34.816-32.768-53.248-51.2-38.912-36.864-79.872-75.776-118.784-114.688l-79.872-79.872v-2.048c-12.288-14.336-24.576-28.672-38.912-28.672-12.288 0-20.48 8.192-32.768 20.48l-4.096 4.096c-22.528 20.48-47.104 43.008-67.584 63.488-32.768 30.72-63.488 59.392-94.208 90.112-28.672 28.672-57.344 55.296-88.064 83.968l-12.288 12.288c-34.816 32.768-71.68 67.584-100.352 106.496-79.872 104.448-112.64 262.144 2.048 356.352 45.056 34.816 106.496 57.344 165.888 57.344 16.384 0 32.768-2.048 49.152-4.096 61.44-12.288 112.64-57.344 163.84-100.352l16.384-14.336 16.384 14.336c67.584 65.536 151.552 102.4 225.28 102.4 45.056 0 86.016-12.288 124.928-36.864 114.688-71.68 122.88-227.328 59.392-327.68z" />
<glyph unicode="&#xe93b;" glyph-name="heart_R-f" data-tags="heart_R-f" d="M446.464 265.728c6.144 6.144 8.192 16.384 10.24 24.576h110.592l12.288-20.48c0-2.048 2.048-2.048 2.048-4.096h-135.168zM344.064 302.592c-8.192 6.144-12.288 16.384-10.24 24.576v284.672c0 10.24 2.048 18.432 10.24 26.624 4.096 6.144 10.24 8.192 16.384 10.24 0 10.24 4.096 18.432 10.24 26.624-16.384 0-30.72-6.144-43.008-18.432-12.288-10.24-18.432-26.624-18.432-43.008v-284.672c0-18.432 6.144-32.768 18.432-45.056 10.24-12.288 26.624-18.432 43.008-18.432-6.144 8.192-10.24 16.384-10.24 26.624-6.144 2.048-12.288 6.144-16.384 10.24zM577.536 443.904c24.576 10.24 43.008 26.624 57.344 47.104s20.48 43.008 20.48 67.584c0 32.768-12.288 61.44-36.864 86.016-2.048 2.048-4.096 4.096-6.144 6.144l-2.048 2.048c-2.048 2.048-2.048 2.048-4.096 4.096 0 2.048-2.048 2.048-4.096 4.096s-4.096 2.048-6.144 4.096c-2.048 0-2.048 2.048-4.096 2.048-2.048 2.048-6.144 2.048-8.192 4.096h-2.048c-4.096 2.048-6.144 2.048-10.24 4.096-12.288 4.096-24.576 6.144-38.912 6.144h-126.976c-8.192 0-18.432-4.096-24.576-10.24s-10.24-14.336-10.24-24.576v-354.304c0-10.24 4.096-18.432 10.24-24.576s14.336-10.24 24.576-10.24c8.192 0 14.336 2.048 20.48 6.144 2.048 0 4.096 2.048 6.144 4.096 6.144 6.144 10.24 12.288 10.24 20.48 0 2.048 0 2.048 0 4.096v133.12c0 4.096 2.048 6.144 6.144 6.144h40.96c2.048 0 4.096 0 6.144-2.048l94.208-153.6c8.192-10.24 18.432-16.384 30.72-16.384 6.144 0 12.288 2.048 18.432 6.144s12.288 12.288 14.336 20.48c0 2.048 0 2.048 0 4.096 2.048 8.192 0 16.384-4.096 24.576l-73.728 120.832c-2.048 2.048-2.048 4.096-2.048 4.096 2.048 2.048 2.048 4.096 4.096 4.096zM569.344 519.68c-10.24-10.24-24.576-16.384-38.912-16.384h-79.872c-4.096 0-6.144 2.048-6.144 6.144v94.208c0 4.096 2.048 6.144 6.144 6.144h79.872c14.336 0 28.672-4.096 38.912-14.336s14.336-22.528 16.384-36.864c0-16.384-6.144-28.672-16.384-38.912zM700.416 658.944c-12.288 12.288-28.672 18.432-45.056 18.432h-55.296c8.192-6.144 18.432-14.336 26.624-22.528 0-2.048 2.048-2.048 2.048-4.096h24.576c10.24 0 20.48-2.048 26.624-10.24s10.24-16.384 10.24-26.624v-286.72c0-10.24-2.048-20.48-10.24-26.624-2.048-4.096-8.192-6.144-12.288-8.192-2.048-2.048-2.048-6.144-2.048-8.192-2.048-8.192-4.096-12.288-8.192-18.432 16.384 2.048 28.672 8.192 40.96 18.432 12.288 12.288 18.432 28.672 18.432 45.056h2.048v286.72c0 16.384-6.144 30.72-18.432 43.008zM894.976 826.88c-131.072 81.92-278.528 28.672-380.928-69.632-53.248 45.056-108.544 92.16-176.128 106.496-79.872 16.384-172.032-6.144-235.52-57.344-122.88-102.4-92.16-274.432-6.144-391.168 34.816-45.056 77.824-83.968 118.784-122.88 59.392-57.344 118.784-112.64 180.224-172.032 20.48-20.48 45.056-43.008 67.584-63.488 14.336-14.336 28.672-30.72 53.248-30.72s43.008 20.48 57.344 38.912c24.576 24.576 53.248 53.248 77.824 77.824 57.344 57.344 116.736 112.64 172.032 165.888 49.152 49.152 102.4 94.208 137.216 155.648 71.68 114.688 57.344 284.672-65.536 362.496zM933.888 480.768c-26.624-47.104-63.488-83.968-104.448-122.88-10.24-10.24-18.432-18.432-28.672-28.672-16.384-16.384-34.816-32.768-53.248-51.2-38.912-36.864-79.872-75.776-118.784-114.688l-81.92-81.92c-10.24-12.288-22.528-26.624-32.768-26.624-8.192 0-14.336 6.144-28.672 18.432v6.144c-22.528 20.48-47.104 43.008-67.584 63.488-32.768 30.72-63.488 59.392-94.208 90.112-28.672 28.672-57.344 55.296-88.064 83.968l-14.336 14.336c-34.816 32.768-71.68 67.584-100.352 104.448-75.776 102.4-108.544 258.048 2.048 348.16 43.008 32.768 102.4 55.296 161.792 55.296 16.384 0 32.768-2.048 47.104-4.096 59.392-12.288 110.592-57.344 161.792-98.304l20.48-18.432 20.48 18.432c67.584 63.488 149.504 100.352 223.232 100.352 43.008 0 83.968-12.288 120.832-34.816 110.592-71.68 116.736-223.232 55.296-321.536z" />
</font>
</defs>
</svg>
